<svg xmlns="http://www.w3.org/2000/svg" xmlns:xlink="http://www.w3.org/1999/xlink" width="750" height="1334" viewBox="0 0 750 1334"><defs><clipPath id="a"><rect width="307" height="149.25" fill="none"/></clipPath><clipPath id="c"><rect width="750" height="1334"/></clipPath></defs><g id="b" clip-path="url(#c)"><rect width="750" height="201" transform="translate(0 1133)" fill="#0b2d27"/><g transform="translate(221 1159)"><g clip-path="url(#a)"><path d="M5.7,123.183l3.229-8.865h.048l3.229,8.865ZM.544,130.412H5.916V129.4H3.483l1.856-5.2h7.227l1.856,5.2H11.988v1.011H17.36V129.4H15.867L9.819,113.162H8.085L2.038,129.4H.544Zm22.042-16.238h2.939c4.121,0,6.7,3.18,6.7,7.614s-2.578,7.614-6.7,7.614H22.586Zm-3.711,16.238h6.8c5.2,0,8-3.517,8-8.624s-2.794-8.625-8-8.625h-6.8v1.012h2.41V129.4h-2.41Zm15-16.238h1.518l5.782,16.238h1.59l5.782-16.238h1.518v-1.012H44.524v1.012H47.1L42,128.967h-.049l-5.108-14.793h2.579v-1.012H33.875ZM51.39,130.412H64.136v-5.348H62.979V129.4H55.1v-7.325h4.216v2.988h1.157v-6.818H59.317v2.819H55.1v-6.891h7.758v4.072h1.157v-5.083H51.39v1.012H53.8V129.4H51.39ZM68.632,129.4H66.223v1.011h6.12V129.4h-2.41V114.174h.1l8.7,16.238h1.951V114.174h2.071v-1.012H76.969v1.012h2.409v14.793h-.049l-8.457-15.8H66.223v1.012h2.409Zm21.75,0H87.538v1.011h6.988V129.4H91.683V114.318h4.795v4.193h1.156v-5.349h-13.2v5.349h1.157v-4.193h4.794Zm8.886-15.227h1.83v10.047c0,3.878,1.638,6.48,5.9,6.48,3.952,0,5.9-2.6,5.9-6.48V114.174h1.83v-1.012H109v1.012h2.6v10.071c0,3.782-1.927,5.444-4.6,5.444s-4.6-1.663-4.6-5.444V114.174H105v-1.012H99.268Zm16.971,16.238h6.119V129.4h-2.41v-6.964h2.917c2.361,0,2.962.869,4.023,5.085l.723,2.89h2.867V129.4h-1.734l-1.06-3.783c-.6-2.12-1.108-3.276-2.556-3.566V122a3.925,3.925,0,0,0,3.276-4.072c0-3.037-1.4-4.77-4.89-4.77h-7.275v1.012h2.409V129.4h-2.409Zm3.708-16.238h2.964c2.963,0,4.047,1.42,4.047,3.807,0,1.42-.77,3.444-3.831,3.444h-3.181Zm12.1,16.238H144.8v-5.348h-1.157V129.4h-7.878v-7.325h4.216v2.988h1.156v-6.818h-1.156v2.819h-4.216v-6.891h7.758v4.072h1.156v-5.083H132.052v1.012h2.409V129.4h-2.409Zm24.508-15.154h-.048a4.286,4.286,0,0,0-4.1-2.386,4.39,4.39,0,0,0-4.7,4.7c0,5.612,8.915,3.469,8.915,8.214,0,2.458-1.423,3.9-3.735,3.9-2.746,0-3.878-2.266-4.023-5.2h-1.157v5.926h1.157V128h.049c.625,1.9,2.263,2.7,4.433,2.7a4.566,4.566,0,0,0,4.721-4.89c0-6.144-8.914-3.588-8.914-8.457a3.267,3.267,0,0,1,3.4-3.469c2.578,0,3.9,1.855,4,5.107h1.156v-5.83H156.56Zm18.455,0h-.049a4.282,4.282,0,0,0-4.1-2.386,4.389,4.389,0,0,0-4.7,4.7c0,5.612,8.914,3.469,8.914,8.214,0,2.458-1.422,3.9-3.734,3.9-2.747,0-3.88-2.266-4.024-5.2h-1.156v5.926h1.156V128h.048c.626,1.9,2.265,2.7,4.433,2.7a4.567,4.567,0,0,0,4.724-4.89c0-6.144-8.915-3.588-8.915-8.457a3.267,3.267,0,0,1,3.4-3.469c2.578,0,3.9,1.855,4,5.107h1.156v-5.83h-1.156Zm9.241,14.143h-2.842v1.011H188.4V129.4h-2.843V114.318h4.795v4.193h1.157v-5.349h-13.2v5.349h1.155v-4.193h4.795Zm12.17-6.218,3.228-8.865h.049l3.228,8.865Zm-5.156,7.228h5.373V129.4h-2.435l1.856-5.2h7.227l1.855,5.2h-2.432v1.011h5.372V129.4h-1.493l-6.049-16.239h-1.734L192.763,129.4H191.27Zm18.331,0h6.119V129.4h-2.408v-6.964h2.915c2.36,0,2.963.869,4.023,5.085l.723,2.89h2.867V129.4h-1.734l-1.061-3.783c-.6-2.12-1.107-3.276-2.555-3.566V122a3.925,3.925,0,0,0,3.278-4.072c0-3.037-1.4-4.77-4.891-4.77H209.6v1.012h2.41V129.4H209.6Zm3.711-16.238h2.962c2.966,0,4.05,1.42,4.05,3.807,0,1.42-.772,3.444-3.832,3.444h-3.18ZM230.437,129.4h-2.843v1.011h6.986V129.4h-2.842V114.318h4.795v4.193h1.157v-5.349h-13.2v5.349h1.156v-4.193h4.795Zm24.719,1.011h6.119V129.4h-2.408V114.174h2.408v-1.012h-6.119v1.012h2.41v6.891H248.6v-6.891h2.41v-1.012h-6.12v1.012H247.3V129.4h-2.409v1.011h6.12V129.4H248.6v-7.179h8.964V129.4h-2.41Zm7.73,0h12.746v-5.348h-1.157V129.4H266.6v-7.325h4.216v2.988h1.157v-6.818h-1.157v2.819H266.6v-6.891h7.758v4.072h1.157v-5.083H262.886v1.012h2.41V129.4h-2.41Zm14.832,0h6.12V129.4h-2.409v-6.964h2.914c2.362,0,2.963.869,4.025,5.085l.721,2.89h2.868V129.4h-1.735l-1.06-3.783c-.6-2.12-1.108-3.276-2.555-3.566V122a3.925,3.925,0,0,0,3.276-4.072c0-3.037-1.4-4.77-4.89-4.77h-7.276v1.012h2.409V129.4h-2.409Zm3.711-16.238h2.963c2.963,0,4.047,1.42,4.047,3.807,0,1.42-.771,3.444-3.831,3.444h-3.18Zm12.1,16.238h12.746v-5.348h-1.157V129.4h-7.878v-7.325h4.216v2.988h1.156v-6.818h-1.156v2.819h-4.216v-6.891H305v4.072h1.155v-5.083H293.532v1.012h2.41V129.4h-2.41Z" transform="translate(0.089 18.549)" fill="#fff"/><path d="M194.283,13.045h1.358v7.1h-1.358c-.113-3.7-2.346-6.081-5.882-6.081-4.043,0-7.183,3.027-7.183,9.079,0,6.107,3.14,9.133,6.985,9.133,3.761,0,6.024-2.572,6.024-6.278V24.583h-3.338V23.4H198.1v1.188h-2.347v8.71h-1.528V30.042h-.085c-.651,2.148-3.45,3.592-5.8,3.592-5.967,0-8.823-4.838-8.823-10.464s2.856-10.464,9.021-10.464c2.8,0,4.78,1.244,5.684,3.394h.056Z" transform="translate(29.502 2.088)" fill="#fff"/><path d="M196.326,31.316h2.261V19.1h-2.261V17.91h3.789v2.6h.058a3.924,3.924,0,0,1,3.817-3,2.777,2.777,0,0,1,.792.085v1.358a2.282,2.282,0,0,0-.679-.086c-2.687,0-3.988,2.237-3.988,5.316v7.128h2.772V32.5h-6.561Z" transform="translate(32.263 2.878)" fill="#fff"/><path d="M215.482,24.3c-.084-3.479-1.669-5.6-4.581-5.6-2.574,0-4.243,2.29-4.526,5.6Zm-9.106,1.188c.057,3.789,1.753,6.222,4.724,6.222a3.9,3.9,0,0,0,4.27-3.564h1.356A5.256,5.256,0,0,1,211.1,32.9c-4.271,0-6.25-3.223-6.25-7.692s1.979-7.692,6.25-7.692c4.3,0,5.91,3.875,5.91,7.975Z" transform="translate(33.664 2.878)" fill="#fff"/><path d="M226.126,25.066c-.963-.028-1.84-.085-2.687-.085-3.508,0-4.922,1.217-4.922,3.648a2.987,2.987,0,0,0,3.253,3.082c3.082,0,4.356-2.912,4.356-5.8ZM217.5,22.125c.141-3.083,2.236-4.61,5.063-4.61,3.96,0,5.09,2.149,5.09,4.893v8.907H229.6V32.5H226.3V29.536h-.058a4.529,4.529,0,0,1-4.809,3.364,4.091,4.091,0,0,1-4.438-4.355c0-3.027,1.809-4.75,6.052-4.75h3.083V22.718c0-2.856-1.387-4.015-3.507-4.015a3.358,3.358,0,0,0-3.593,3.421Z" transform="translate(35.659 2.878)" fill="#fff"/><path d="M231.006,15.263l1.526-.566v3.677h3.931v1.188h-3.931v10.21c0,1.78.708,2.4,1.444,2.4,1.159,0,1.752-.99,1.752-2.8v-.311h1.188V29.6c0,2.236-1.131,3.762-3.082,3.762-1.98,0-2.828-1.131-2.828-3.253V19.562h-2.6V18.374h2.6Z" transform="translate(37.535 2.415)" fill="#fff"/><rect width="1.537" height="111.579" transform="translate(185.854 0.575)" fill="#fff"/><path d="M184.242,57.53l-4.27-19.061h-1.642V37.281h6.335v1.188H181.5l3.789,17.365h.057l4.638-18.552h2.263l4.638,18.552h.056l3.791-17.365h-3V37.281H203.9v1.188h-1.639l-4.27,19.061h-2.123l-4.723-18.721h-.057L186.364,57.53Z" transform="translate(29.306 6.127)" fill="#fff"/><path d="M210.969,48.586c-.085-3.479-1.668-5.6-4.581-5.6-2.574,0-4.242,2.29-4.525,5.6Zm-9.105,1.188c.056,3.789,1.752,6.221,4.721,6.221a3.9,3.9,0,0,0,4.271-3.563h1.358a5.259,5.259,0,0,1-5.628,4.75c-4.27,0-6.25-3.224-6.25-7.692s1.98-7.692,6.25-7.692c4.3,0,5.913,3.875,5.913,7.975Z" transform="translate(32.922 6.869)" fill="#fff"/><path d="M212.575,51.668h1.188c.113,2.913,1.726,4.328,3.9,4.328s3.564-1.161,3.564-3.167c0-1.755-.792-2.348-3.139-2.716l-1.837-.282c-2.263-.4-3.536-1.443-3.536-3.478a4.444,4.444,0,0,1,4.7-4.555,3.865,3.865,0,0,1,3.873,2.121h.057V42.194h1.188V47.2h-1.188v-.793c0-2.205-1.584-3.421-3.7-3.421a3.093,3.093,0,0,0-3.394,3.167c0,1.526,1.131,2.12,2.572,2.347l2.123.34c2.686.424,3.817,1.639,3.817,3.845,0,3-1.95,4.5-5.032,4.5a3.8,3.8,0,0,1-3.932-2.348h-.028v1.951h-1.188Z" transform="translate(34.933 6.869)" fill="#fff"/><path d="M225.132,39.547l1.526-.566v3.676h3.932v1.189h-3.932v10.21c0,1.78.709,2.4,1.444,2.4,1.16,0,1.754-.991,1.754-2.8v-.311h1.188v.537c0,2.236-1.132,3.762-3.082,3.762-1.981,0-2.829-1.131-2.829-3.253V43.846h-2.6V42.657h2.6Z" transform="translate(36.569 6.406)" fill="#fff"/><path d="M241.979,48.586c-.085-3.479-1.669-5.6-4.581-5.6-2.574,0-4.243,2.29-4.526,5.6Zm-9.106,1.188c.057,3.789,1.753,6.221,4.723,6.221a3.9,3.9,0,0,0,4.271-3.563h1.356a5.257,5.257,0,0,1-5.627,4.75c-4.27,0-6.25-3.224-6.25-7.692s1.981-7.692,6.25-7.692c4.3,0,5.911,3.875,5.911,7.975Z" transform="translate(38.018 6.869)" fill="#fff"/><path d="M243.05,55.6h2.262V43.381H243.05V42.194h3.789v2.6h.058a3.926,3.926,0,0,1,3.817-3,2.817,2.817,0,0,1,.792.084V43.24a2.353,2.353,0,0,0-.679-.085c-2.687,0-3.988,2.234-3.988,5.316V55.6h2.772v1.188H243.05Z" transform="translate(39.941 6.869)" fill="#fff"/><path d="M251.137,55.6H253.4V43.381h-2.262V42.194h3.789v2.291h.058a4.277,4.277,0,0,1,4.27-2.686c3.081,0,4.381,1.724,4.381,5.4v8.4h2.095v1.188h-6.052V55.6h2.431V47.2c0-2.884-1.1-4.215-3.336-4.215-2.262,0-3.847,2.095-3.847,5.486V55.6h2.263v1.188h-6.052Z" transform="translate(41.27 6.869)" fill="#fff"/><path d="M183.171,71.265h3.734c3.591,0,4.5-2.375,4.5-4.045,0-2.8-1.27-4.469-4.749-4.469h-3.48Zm-4.353,9.36h2.827V62.751h-2.827V61.565h8.54c4.1,0,5.74,2.035,5.74,5.6a4.607,4.607,0,0,1-3.846,4.778V72c1.7.339,2.29,1.7,3,4.185l1.244,4.441h2.036v1.188h-3.365l-.85-3.393c-1.242-4.95-1.95-5.967-4.721-5.967h-3.423v8.172H186v1.188h-7.183Z" transform="translate(29.386 10.117)" fill="#fff"/><path d="M203.663,73.632c-.962-.027-1.837-.084-2.687-.084-3.506,0-4.919,1.217-4.919,3.648a2.986,2.986,0,0,0,3.251,3.083c3.083,0,4.356-2.913,4.356-5.8Zm-8.625-2.94c.142-3.082,2.234-4.61,5.063-4.61,3.959,0,5.089,2.149,5.089,4.893v8.907h1.951V81.07h-3.308V78.1h-.057a4.53,4.53,0,0,1-4.808,3.364,4.091,4.091,0,0,1-4.44-4.353c0-3.027,1.809-4.753,6.052-4.753h3.082V71.285c0-2.856-1.386-4.015-3.506-4.015a3.357,3.357,0,0,0-3.592,3.421Z" transform="translate(31.968 10.86)" fill="#fff"/><path d="M208.349,62.05h1.866v2.035h-1.866Zm-2.261,18.5h2.431V68.328h-2.431V67.14h3.958v13.4h2.263v1.188h-6.221Z" transform="translate(33.867 10.197)" fill="#fff"/><path d="M212.377,80.625h2.432V62.751h-2.432V61.565h3.96v19.06H218.6v1.188h-6.221Z" transform="translate(34.901 10.117)" fill="#fff"/><path d="M219.554,67.61h-1.3V66.422h5.092V67.61h-2.262L224.5,79.318h.057l3.479-12.9h2.035l3.478,12.9h.057l3.422-11.709h-2.038V66.422h4.865V67.61h-1.3l-3.931,13.4h-2.036L229.085,67.95h-.056l-3.508,13.065h-2.035Z" transform="translate(35.866 10.915)" fill="#fff"/><path d="M247.252,73.632c-.963-.027-1.838-.084-2.687-.084-3.507,0-4.922,1.217-4.922,3.648a2.988,2.988,0,0,0,3.253,3.083c3.082,0,4.356-2.913,4.356-5.8Zm-8.627-2.94c.142-3.082,2.236-4.61,5.063-4.61,3.96,0,5.09,2.149,5.09,4.893v8.907h1.951V81.07h-3.308V78.1h-.058a4.53,4.53,0,0,1-4.808,3.364,4.091,4.091,0,0,1-4.44-4.353c0-3.027,1.809-4.753,6.052-4.753h3.083V71.285c0-2.856-1.387-4.015-3.507-4.015a3.357,3.357,0,0,0-3.592,3.421Z" transform="translate(39.131 10.86)" fill="#fff"/><path d="M249.627,66.422h4.979V67.61h-2.121l4.016,11.2h.056l4.017-11.2H258.45V66.422h4.639V67.61h-.99l-5.656,15.469c-.9,2.488-1.951,3.026-3.338,3.026a4.631,4.631,0,0,1-1.386-.17V84.747a3.365,3.365,0,0,0,1.16.17c1.133,0,1.613-.424,2.885-3.9l-4.808-13.4h-1.33Z" transform="translate(41.022 10.915)" fill="#fff"/><path d="M97.183,60.655,76.965,0,56.748,60.654,41.585,15.163H31.476L56.748,90.98,76.965,30.326,97.183,90.979l25.273-75.816h-10.11Z" transform="translate(5.173 0)" fill="#fff"/><path d="M32.629,45.989H21.49V55.58h7.834v4.164a11.9,11.9,0,1,1,0-17.918l4.145-8.889a21.494,21.494,0,1,0,5.448,30.433V45.989Z" transform="translate(0 4.814)" fill="#fff"/><path d="M119.566,39.978H131.8a4.814,4.814,0,0,1,.112,9.627H119.566ZM146.2,44.79a14.4,14.4,0,0,0-14.4-14.4H109.977V70.841h9.589V59.193h10.7L135.7,70.841h10.5l-6.525-14A14.385,14.385,0,0,0,146.2,44.79" transform="translate(18.073 4.994)" fill="#fff"/></g></g></g></svg>