<svg xmlns="http://www.w3.org/2000/svg" width="146.663" height="86.93" viewBox="0 0 146.663 86.93">
  <g id="LOGO" transform="translate(-800.657 -131.875)">
    <g id="new_logo" data-name="new logo" transform="translate(800.657 131.875)">
      <path id="Path_208" data-name="Path 208" d="M114.732,68.476l17-45.571,24.957,66.907Zm17-57.181L109.665,70.451l54.462,27.7Z" transform="translate(-17.464 -11.295)" fill="#ff4713"/>
      <path id="Path_209" data-name="Path 209" d="M14.44,77.851h.015l1.507,4.432H12.933Zm.007-2.694H13.4L9.185,86.451h2.336l.768-2.258h4.316l.768,2.258H19.71L15.5,75.157Z" transform="translate(-9.185 -16.557)" fill="#131e29"/>
      <path id="Path_210" data-name="Path 210" d="M39.578,82.284H38.064l1.506-4.433h.016l1.506,4.433Zm1.052-7.126h-2.1l-4.21,11.294h2.336l.768-2.258h4.316l.769,2.258h2.336Z" transform="translate(-11.256 -16.557)" fill="#131e29"/>
      <path id="Path_211" data-name="Path 211" d="M58.858,75.158V86.452h-2.29L51.6,78.969h-.031v7.482H49.341V75.158h2.227l5.023,7.631h.031V75.158Z" transform="translate(-12.493 -16.557)" fill="#131e29"/>
      <path id="Path_212" data-name="Path 212" d="M66.717,77.16H63.6v-2h8.469v2H68.945v9.292H66.717Z" transform="translate(-13.669 -16.557)" fill="#131e29"/>
      <rect id="Rectangle_21" data-name="Rectangle 21" width="2.251" height="11.294" transform="translate(62.211 58.601)" fill="#131e29"/>
      <path id="Path_213" data-name="Path 213" d="M26.044,86.452h1.95l4.213-11.294H29.785L27.032,83.27h-.025l-2.754-8.112H21.832l4.213,11.294h1.95" transform="translate(-10.227 -16.557)" fill="#131e29"/>
      <g id="Group_182" data-name="Group 182" transform="translate(0.001 75.48)">
        <path id="Path_214" data-name="Path 214" d="M111.6,103.279l.362-.973a4.4,4.4,0,0,0,3.573,1.819c1.544,0,2.686-.8,2.686-2.049,0-1.568-1.265-1.956-2.841-2.57s-3.338-1.234-3.338-3.105a3.076,3.076,0,0,1,3.346-2.848,5.646,5.646,0,0,1,3.439,1.257l-.343.921a4.862,4.862,0,0,0-3.1-1.3,2.119,2.119,0,0,0-2.367,1.918c-.008,1.359,1.234,1.731,2.678,2.306,1.855.737,3.485,1.25,3.485,3.33,0,1.855-1.622,3.02-3.641,3.02a5.279,5.279,0,0,1-3.936-1.723" transform="translate(-17.624 -93.552)" fill="#131e29"/>
        <path id="Path_215" data-name="Path 215" d="M126.527,94.62H123v-.854h8.011v.854H127.42v10.2h-.893Z" transform="translate(-18.563 -93.57)" fill="#131e29"/>
        <path id="Path_216" data-name="Path 216" d="M105.51,101.065l-2.317-6.211h-.016l-2.317,6.211Zm.318.854h-5.286l-1.084,2.906H98.5l4.125-11.058h1.113l4.126,11.058h-.955Z" transform="translate(-16.545 -93.57)" fill="#131e29"/>
        <path id="Path_217" data-name="Path 217" d="M94.2,99.265a4.651,4.651,0,1,0-4.635,4.851A4.608,4.608,0,0,0,94.2,99.265m-10.24,0a5.595,5.595,0,1,1,5.6,5.737,5.485,5.485,0,0,1-5.6-5.737" transform="translate(-15.346 -93.552)" fill="#131e29"/>
        <path id="Path_218" data-name="Path 218" d="M75.879,105a5.312,5.312,0,0,1-5.558-5.659c0-3.206,1.972-5.775,5.558-5.775a5.458,5.458,0,0,1,4.347,2.143l-.691.566a4.659,4.659,0,0,0-3.656-1.823c-2.926,0-4.611,2.1-4.611,4.89a4.453,4.453,0,0,0,4.611,4.773,4.565,4.565,0,0,0,3.656-1.808l.691.566A5.328,5.328,0,0,1,75.879,105Z" transform="translate(-14.223 -93.553)" fill="#131e29"/>
        <path id="Path_219" data-name="Path 219" d="M40.886,103.279l.362-.973a4.4,4.4,0,0,0,3.573,1.819c1.544,0,2.686-.8,2.686-2.049,0-1.568-1.265-1.956-2.841-2.57s-3.338-1.234-3.338-3.105a3.076,3.076,0,0,1,3.346-2.848,5.646,5.646,0,0,1,3.439,1.257l-.343.921a4.862,4.862,0,0,0-3.1-1.3A2.119,2.119,0,0,0,42.3,96.346c-.008,1.359,1.234,1.731,2.679,2.306,1.854.737,3.485,1.25,3.485,3.33,0,1.855-1.622,3.02-3.641,3.02a5.279,5.279,0,0,1-3.936-1.723" transform="translate(-11.798 -93.552)" fill="#131e29"/>
        <path id="Path_220" data-name="Path 220" d="M55.812,94.62H52.281v-.854h8.011v.854H56.705v10.2h-.893Z" transform="translate(-12.736 -93.57)" fill="#131e29"/>
        <path id="Path_221" data-name="Path 221" d="M29.83,93.767H36.9v.854H30.723v4.23h5.2v.854h-5.2v4.265H36.9v.853H29.831Z" transform="translate(-10.887 -93.57)" fill="#131e29"/>
        <path id="Path_222" data-name="Path 222" d="M25.087,93.766l-3.834,11.058h-.991l-3.105-9.731h-.017l-3.066,9.731h-.991l-3.9-11.058h1.008l3.369,9.576H13.6L16.6,93.766h1.082l3.056,9.607h.033l3.3-9.607Z" transform="translate(-9.186 -93.57)" fill="#131e29"/>
      </g>
    </g>
  </g>
</svg>
