<svg id="Avanti_Logo" data-name="Avanti Logo" xmlns="http://www.w3.org/2000/svg" xmlns:xlink="http://www.w3.org/1999/xlink" width="226" height="106" viewBox="0 0 226 106">
  <defs>
    <clipPath id="clip-path">
      <path id="Path_156" data-name="Path 156" d="M0,47H226V-59H0Z" transform="translate(0 59)" fill="none"/>
    </clipPath>
  </defs>
  <g id="Group_1638" data-name="Group 1638" clip-path="url(#clip-path)">
    <g id="Group_1614" data-name="Group 1614" transform="translate(163.571 232.341)">
      <path id="Path_131" data-name="Path 131" d="M0,6.19l.52-1.4A6.3,6.3,0,0,0,5.639,7.4c2.213,0,3.849-1.148,3.849-2.941,0-2.251-1.813-2.808-4.072-3.688S.635-1,.635-3.681c0-2.33,2.1-4.089,4.793-4.089a8.09,8.09,0,0,1,4.929,1.8L9.863-4.644A6.956,6.956,0,0,0,5.417-6.512c-1.69,0-3.381.936-3.392,2.752C2.012-1.811,3.794-1.275,5.863-.451,8.52.608,10.857,1.342,10.857,4.328c0,2.663-2.325,4.335-5.218,4.335A7.56,7.56,0,0,1,0,6.19" transform="translate(0 7.77)" fill="#fff"/>
    </g>
    <g id="Group_1615" data-name="Group 1615" transform="translate(178.552 232.624)">
      <path id="Path_132" data-name="Path 132" d="M2.24.543H-2.822V-.682H8.657V.543H3.519l0,14.646H2.241Z" transform="translate(2.822 0.682)" fill="#fff"/>
    </g>
    <g id="Group_1616" data-name="Group 1616" transform="translate(146.351 232.624)">
      <path id="Path_133" data-name="Path 133" d="M4.644,5.188H-2.931L-4.484,9.359H-5.851L.059-6.512h1.6L7.566,9.359H6.2ZM4.188,3.962.868-4.953H.846l-3.32,8.915Z" transform="translate(5.851 6.512)" fill="#fff"/>
    </g>
    <g id="Group_1617" data-name="Group 1617" transform="translate(127.223 232.341)">
      <path id="Path_134" data-name="Path 134" d="M0,3.636a7.866,7.866,0,0,1,8.03-8.2,7.835,7.835,0,0,1,8,8.2,7.845,7.845,0,0,1-8,8.234A7.869,7.869,0,0,1,0,3.636m14.67,0a6.606,6.606,0,0,0-6.64-6.93,6.624,6.624,0,0,0-6.672,6.93,6.663,6.663,0,1,0,13.312,0" transform="translate(0 4.564)" fill="#fff"/>
    </g>
    <g id="Group_1618" data-name="Group 1618" transform="translate(109.296 232.364)">
      <path id="Path_135" data-name="Path 135" d="M3.524,7.276C-.813,7.276-4.44,4.425-4.44-.846c0-4.6,2.825-8.288,7.964-8.288A7.818,7.818,0,0,1,9.753-6.06l-.99.814A6.676,6.676,0,0,0,3.524-7.864c-4.194,0-6.606,3.008-6.606,7.018,0,4.312,2.891,6.852,6.606,6.852a6.54,6.54,0,0,0,5.239-2.6l.99.814A7.634,7.634,0,0,1,3.524,7.276Z" transform="translate(4.44 9.134)" fill="#fff"/>
    </g>
    <g id="Group_1619" data-name="Group 1619" transform="translate(70.595 232.341)">
      <path id="Path_136" data-name="Path 136" d="M0,6.19l.52-1.4A6.3,6.3,0,0,0,5.639,7.4c2.213,0,3.849-1.148,3.849-2.941,0-2.251-1.813-2.808-4.072-3.688S.635-1,.635-3.681c0-2.33,2.1-4.089,4.793-4.089a8.09,8.09,0,0,1,4.929,1.8L9.863-4.644A6.956,6.956,0,0,0,5.417-6.512c-1.691,0-3.381.936-3.392,2.752C2.012-1.811,3.794-1.275,5.863-.451,8.52.608,10.857,1.342,10.857,4.328c0,2.663-2.325,4.335-5.218,4.335A7.56,7.56,0,0,1,0,6.19" transform="translate(0 7.77)" fill="#fff"/>
    </g>
    <g id="Group_1620" data-name="Group 1620" transform="translate(85.576 232.624)">
      <path id="Path_137" data-name="Path 137" d="M2.24.543H-2.822V-.682H8.657V.543H3.519l0,14.646H2.241Z" transform="translate(2.822 0.682)" fill="#fff"/>
    </g>
    <g id="Group_1621" data-name="Group 1621" transform="translate(56.059 232.623)">
      <path id="Path_138" data-name="Path 138" d="M0,0,10.138,0V1.224l-8.859,0V7.3l7.445,0V8.524H1.279l0,6.121h8.853V15.87H0Z" transform="translate(0 0.001)" fill="#fff"/>
    </g>
    <g id="Group_1622" data-name="Group 1622" transform="translate(28.915 232.624)">
      <path id="Path_139" data-name="Path 139" d="M10.082,0,4.59,15.871H3.169L-1.281,1.9H-1.3L-5.7,15.871H-7.118L-12.7,0h1.444l4.829,13.744h.047L-2.074,0h1.55l4.38,13.787H3.9L8.627,0Z" transform="translate(12.703)" fill="#fff"/>
    </g>
    <g id="Group_1623" data-name="Group 1623" transform="translate(160.732 0)">
      <path id="Path_140" data-name="Path 140" d="M5.577,5.276,16.251,33.937-1.693,24.8Zm-.118-11.9L-7.027,26.905,23.79,42.6Z" transform="translate(7.027 6.623)" fill="#ff4713"/>
    </g>
    <g id="Group_1624" data-name="Group 1624" transform="translate(28.915 32.38)">
      <path id="Path_141" data-name="Path 141" d="M4,0H.99L-5.044,16.209H-1.7l1.1-3.241H5.587l1.1,3.241h3.349ZM2.5,10.228H.326l2.16-6.362h.022l2.158,6.362Z" transform="translate(5.044)" fill="#131e29"/>
    </g>
    <g id="Group_1625" data-name="Group 1625" transform="translate(61.956 32.38)">
      <path id="Path_142" data-name="Path 142" d="M4,0H.99L-5.044,16.209H-1.7l1.1-3.241H5.587l1.1,3.241h3.349ZM2.5,10.228H.326l2.16-6.362h.022l2.158,6.362Z" transform="translate(5.044)" fill="#131e29"/>
    </g>
    <g id="Group_1626" data-name="Group 1626" transform="translate(81.712 32.38)">
      <path id="Path_143" data-name="Path 143" d="M6.033,0V16.209H2.753L-4.366,5.471h-.045V16.209H-7.6V0h3.191l7.2,10.952H2.83V0Z" transform="translate(7.602)" fill="#131e29"/>
    </g>
    <g id="Group_1627" data-name="Group 1627" transform="translate(100.465 32.38)">
      <path id="Path_144" data-name="Path 144" d="M1.974,1.275H-2.487V-1.6H9.647V1.275H5.167V14.611H1.974Z" transform="translate(2.487 1.6)" fill="#131e29"/>
    </g>
    <path id="Path_145" data-name="Path 145" d="M65.818-40.977h3.225v16.209H65.818Z" transform="translate(52.237 73.357)" fill="#131e29"/>
    <g id="Group_1628" data-name="Group 1628" transform="translate(45.541 32.381)">
      <path id="Path_146" data-name="Path 146" d="M2.671,7.187H5.466L11.5-9.022H8.033L4.087,2.62H4.051L.1-9.022H-3.366L2.671,7.187H5.466" transform="translate(3.366 9.022)" fill="#131e29"/>
    </g>
    <g id="Group_1629" data-name="Group 1629" transform="translate(163.571 56.605)">
      <path id="Path_147" data-name="Path 147" d="M0,6.19l.52-1.4A6.3,6.3,0,0,0,5.639,7.4c2.213,0,3.849-1.148,3.849-2.941,0-2.251-1.813-2.808-4.072-3.688S.635-1,.635-3.681c0-2.33,2.1-4.089,4.793-4.089a8.09,8.09,0,0,1,4.929,1.8L9.863-4.644A6.956,6.956,0,0,0,5.417-6.512c-1.69,0-3.381.936-3.392,2.752C2.012-1.811,3.794-1.275,5.863-.451,8.52.608,10.857,1.342,10.857,4.328c0,2.663-2.325,4.335-5.218,4.335A7.56,7.56,0,0,1,0,6.19" transform="translate(0 7.77)" fill="#131e29"/>
    </g>
    <g id="Group_1630" data-name="Group 1630" transform="translate(178.552 56.888)">
      <path id="Path_148" data-name="Path 148" d="M2.24.543H-2.822V-.682H8.657V.543H3.519l0,14.646H2.241Z" transform="translate(2.822 0.682)" fill="#131e29"/>
    </g>
    <g id="Group_1631" data-name="Group 1631" transform="translate(146.351 56.888)">
      <path id="Path_149" data-name="Path 149" d="M4.644,5.188H-2.931L-4.484,9.359H-5.851L.059-6.512h1.6L7.566,9.359H6.2ZM4.188,3.962.868-4.953H.846l-3.32,8.915Z" transform="translate(5.851 6.512)" fill="#131e29"/>
    </g>
    <g id="Group_1632" data-name="Group 1632" transform="translate(127.223 56.605)">
      <path id="Path_150" data-name="Path 150" d="M0,3.636a7.866,7.866,0,0,1,8.03-8.2,7.835,7.835,0,0,1,8,8.2,7.845,7.845,0,0,1-8,8.234A7.869,7.869,0,0,1,0,3.636m14.67,0a6.606,6.606,0,0,0-6.64-6.93,6.624,6.624,0,0,0-6.672,6.93,6.663,6.663,0,1,0,13.312,0" transform="translate(0 4.564)" fill="#131e29"/>
    </g>
    <g id="Group_1633" data-name="Group 1633" transform="translate(109.296 56.628)">
      <path id="Path_151" data-name="Path 151" d="M3.524,7.276C-.813,7.276-4.44,4.425-4.44-.846c0-4.6,2.825-8.288,7.964-8.288A7.818,7.818,0,0,1,9.753-6.06l-.99.814A6.676,6.676,0,0,0,3.524-7.864c-4.194,0-6.606,3.008-6.606,7.018,0,4.312,2.891,6.852,6.606,6.852a6.54,6.54,0,0,0,5.239-2.6l.99.814A7.634,7.634,0,0,1,3.524,7.276Z" transform="translate(4.44 9.134)" fill="#131e29"/>
    </g>
    <g id="Group_1634" data-name="Group 1634" transform="translate(70.595 56.605)">
      <path id="Path_152" data-name="Path 152" d="M0,6.19l.52-1.4A6.3,6.3,0,0,0,5.639,7.4c2.213,0,3.849-1.148,3.849-2.941,0-2.251-1.813-2.808-4.072-3.688S.635-1,.635-3.681c0-2.33,2.1-4.089,4.793-4.089a8.09,8.09,0,0,1,4.929,1.8L9.863-4.644A6.956,6.956,0,0,0,5.417-6.512c-1.691,0-3.381.936-3.392,2.752C2.012-1.811,3.794-1.275,5.863-.451,8.52.608,10.857,1.342,10.857,4.328c0,2.663-2.325,4.335-5.218,4.335A7.56,7.56,0,0,1,0,6.19" transform="translate(0 7.77)" fill="#131e29"/>
    </g>
    <g id="Group_1635" data-name="Group 1635" transform="translate(85.576 56.888)">
      <path id="Path_153" data-name="Path 153" d="M2.24.543H-2.822V-.682H8.657V.543H3.519l0,14.646H2.241Z" transform="translate(2.822 0.682)" fill="#131e29"/>
    </g>
    <g id="Group_1636" data-name="Group 1636" transform="translate(56.059 56.887)">
      <path id="Path_154" data-name="Path 154" d="M0,0,10.138,0V1.224l-8.859,0V7.3l7.445,0V8.524H1.279l0,6.121h8.853V15.87H0Z" transform="translate(0 0.001)" fill="#131e29"/>
    </g>
    <g id="Group_1637" data-name="Group 1637" transform="translate(28.915 56.888)">
      <path id="Path_155" data-name="Path 155" d="M10.082,0,4.59,15.871H3.169L-1.281,1.9H-1.3L-5.7,15.871H-7.118L-12.7,0h1.444l4.829,13.744h.047L-2.074,0h1.55l4.38,13.787H3.9L8.627,0Z" transform="translate(12.703)" fill="#131e29"/>
    </g>
  </g>
</svg>
