<svg id="Avanti_Logo" data-name="Avanti Logo" xmlns="http://www.w3.org/2000/svg" xmlns:xlink="http://www.w3.org/1999/xlink" width="166" height="78" viewBox="0 0 166 78">
  <defs>
    <clipPath id="clip-path">
      <path id="Path_156" data-name="Path 156" d="M0,19H166V-59H0Z" transform="translate(0 59)" fill="none"/>
    </clipPath>
  </defs>
  <g id="Group_1638" data-name="Group 1638" clip-path="url(#clip-path)">
    <g id="Group_1614" data-name="Group 1614" transform="translate(120.145 170.968)">
      <path id="Path_131" data-name="Path 131" d="M0,2.5.382,1.475A4.621,4.621,0,0,0,4.142,3.4c1.626,0,2.827-.845,2.827-2.164,0-1.657-1.332-2.066-2.991-2.714S.466-2.786.466-4.761A3.24,3.24,0,0,1,3.987-7.77a5.935,5.935,0,0,1,3.62,1.327l-.362.973A5.1,5.1,0,0,0,3.979-6.845,2.233,2.233,0,0,0,1.487-4.819c-.009,1.434,1.3,1.828,2.819,2.435,1.951.779,3.668,1.319,3.668,3.517,0,1.959-1.707,3.19-3.832,3.19A5.548,5.548,0,0,1,0,2.5" transform="translate(0 7.77)" fill="#fff"/>
    </g>
    <g id="Group_1615" data-name="Group 1615" transform="translate(131.149 171.176)">
      <path id="Path_132" data-name="Path 132" d="M.9.22H-2.822v-.9H5.61v.9H1.835V11H.9Z" transform="translate(2.822 0.682)" fill="#fff"/>
    </g>
    <g id="Group_1616" data-name="Group 1616" transform="translate(107.497 171.176)">
      <path id="Path_133" data-name="Path 133" d="M1.857,2.1H-3.706l-1.141,3.07h-1L-1.51-6.512H-.337L4,5.167H3Zm-.335-.9L-.916-5.364H-.932L-3.37,1.2Z" transform="translate(5.851 6.512)" fill="#fff"/>
    </g>
    <g id="Group_1617" data-name="Group 1617" transform="translate(93.447 170.968)">
      <path id="Path_134" data-name="Path 134" d="M0,1.47A5.783,5.783,0,0,1,5.9-4.564,5.76,5.76,0,0,1,11.773,1.47,5.768,5.768,0,0,1,5.9,7.529,5.786,5.786,0,0,1,0,1.47m10.776,0A4.857,4.857,0,0,0,5.9-3.629,4.87,4.87,0,0,0,1,1.47a4.894,4.894,0,1,0,9.778,0" transform="translate(0 4.564)" fill="#fff"/>
    </g>
    <g id="Group_1618" data-name="Group 1618" transform="translate(80.28 170.985)">
      <path id="Path_135" data-name="Path 135" d="M1.41,2.941A5.6,5.6,0,0,1-4.44-3.035c0-3.384,2.075-6.1,5.85-6.1A5.739,5.739,0,0,1,5.985-6.872l-.727.6A4.9,4.9,0,0,0,1.41-8.2c-3.08,0-4.852,2.213-4.852,5.164A4.694,4.694,0,0,0,1.41,2.007,4.8,4.8,0,0,0,5.258.1l.727.6A5.6,5.6,0,0,1,1.41,2.941Z" transform="translate(4.44 9.134)" fill="#fff"/>
    </g>
    <g id="Group_1619" data-name="Group 1619" transform="translate(51.853 170.968)">
      <path id="Path_136" data-name="Path 136" d="M0,2.5.382,1.475A4.621,4.621,0,0,0,4.142,3.4c1.626,0,2.827-.845,2.827-2.164,0-1.657-1.332-2.066-2.991-2.714S.466-2.786.466-4.761A3.24,3.24,0,0,1,3.987-7.77a5.935,5.935,0,0,1,3.62,1.327l-.362.973A5.1,5.1,0,0,0,3.979-6.845,2.232,2.232,0,0,0,1.487-4.819c-.009,1.434,1.3,1.828,2.819,2.435,1.951.779,3.668,1.319,3.668,3.517,0,1.959-1.707,3.19-3.832,3.19A5.548,5.548,0,0,1,0,2.5" transform="translate(0 7.77)" fill="#fff"/>
    </g>
    <g id="Group_1620" data-name="Group 1620" transform="translate(62.856 171.176)">
      <path id="Path_137" data-name="Path 137" d="M.9.22H-2.822v-.9H5.61v.9H1.835V11H.9Z" transform="translate(2.822 0.682)" fill="#fff"/>
    </g>
    <g id="Group_1621" data-name="Group 1621" transform="translate(41.176 171.175)">
      <path id="Path_138" data-name="Path 138" d="M0,0H7.446V.9H.939V5.37H6.408v.9H.939v4.5h6.5v.9H0Z" transform="translate(0 0.001)" fill="#fff"/>
    </g>
    <g id="Group_1622" data-name="Group 1622" transform="translate(21.238 171.176)">
      <path id="Path_139" data-name="Path 139" d="M4.033,0,0,11.679H-1.045L-4.313,1.4h-.017L-7.557,11.679H-8.6L-12.7,0h1.061L-8.1,10.114h.034L-4.9,0h1.138L-.54,10.145h.034L2.964,0Z" transform="translate(12.703)" fill="#fff"/>
    </g>
    <g id="Group_1623" data-name="Group 1623" transform="translate(118.06 0)">
      <path id="Path_140" data-name="Path 140" d="M2.231,2.133l7.84,21.09L-3.109,16.5ZM2.144-6.623-7.027,18.049,15.608,29.6Z" transform="translate(7.027 6.623)" fill="#ff4713"/>
    </g>
    <g id="Group_1624" data-name="Group 1624" transform="translate(21.239 23.827)">
      <path id="Path_141" data-name="Path 141" d="M1.6,0H-.612L-5.044,11.927h2.458l.809-2.385H2.765l.809,2.385h2.46ZM.495,7.526H-1.1L.487,2.845H.5L2.087,7.526Z" transform="translate(5.044)" fill="#131e29"/>
    </g>
    <g id="Group_1625" data-name="Group 1625" transform="translate(45.508 23.827)">
      <path id="Path_142" data-name="Path 142" d="M1.6,0H-.612L-5.044,11.927h2.458l.809-2.385H2.765l.809,2.385h2.46ZM.495,7.526H-1.1L.487,2.845H.5L2.087,7.526Z" transform="translate(5.044)" fill="#131e29"/>
    </g>
    <g id="Group_1626" data-name="Group 1626" transform="translate(60.019 23.827)">
      <path id="Path_143" data-name="Path 143" d="M2.413,0V11.927H0l-5.229-7.9h-.033v7.9H-7.6V0h2.344L.027,8.059H.06V0Z" transform="translate(7.602)" fill="#131e29"/>
    </g>
    <g id="Group_1627" data-name="Group 1627" transform="translate(73.793 23.827)">
      <path id="Path_144" data-name="Path 144" d="M.79.515H-2.487V-1.6H6.426V.515H3.135v9.813H.79Z" transform="translate(2.487 1.6)" fill="#131e29"/>
    </g>
    <path id="Path_145" data-name="Path 145" d="M65.818-40.977h2.369V-29.05H65.818Z" transform="translate(20.895 64.804)" fill="#131e29"/>
    <g id="Group_1628" data-name="Group 1628" transform="translate(33.45 23.828)">
      <path id="Path_146" data-name="Path 146" d="M1.069,2.905H3.121L7.554-9.022H5.006L2.108-.455H2.082l-2.9-8.567H-3.366L1.069,2.905H3.121" transform="translate(3.366 9.022)" fill="#131e29"/>
    </g>
    <g id="Group_1629" data-name="Group 1629" transform="translate(120.145 41.653)">
      <path id="Path_147" data-name="Path 147" d="M0,2.5.382,1.475A4.621,4.621,0,0,0,4.142,3.4c1.626,0,2.827-.845,2.827-2.164,0-1.657-1.332-2.066-2.991-2.714S.466-2.786.466-4.761A3.24,3.24,0,0,1,3.987-7.77a5.935,5.935,0,0,1,3.62,1.327l-.362.973A5.1,5.1,0,0,0,3.979-6.845,2.233,2.233,0,0,0,1.487-4.819c-.009,1.434,1.3,1.828,2.819,2.435,1.951.779,3.668,1.319,3.668,3.517,0,1.959-1.707,3.19-3.832,3.19A5.548,5.548,0,0,1,0,2.5" transform="translate(0 7.77)" fill="#131e29"/>
    </g>
    <g id="Group_1630" data-name="Group 1630" transform="translate(131.149 41.861)">
      <path id="Path_148" data-name="Path 148" d="M.9.22H-2.822v-.9H5.61v.9H1.835V11H.9Z" transform="translate(2.822 0.682)" fill="#131e29"/>
    </g>
    <g id="Group_1631" data-name="Group 1631" transform="translate(107.497 41.861)">
      <path id="Path_149" data-name="Path 149" d="M1.857,2.1H-3.706l-1.141,3.07h-1L-1.51-6.512H-.337L4,5.167H3Zm-.335-.9L-.916-5.364H-.932L-3.37,1.2Z" transform="translate(5.851 6.512)" fill="#131e29"/>
    </g>
    <g id="Group_1632" data-name="Group 1632" transform="translate(93.447 41.653)">
      <path id="Path_150" data-name="Path 150" d="M0,1.47A5.783,5.783,0,0,1,5.9-4.564,5.76,5.76,0,0,1,11.773,1.47,5.768,5.768,0,0,1,5.9,7.529,5.786,5.786,0,0,1,0,1.47m10.776,0A4.857,4.857,0,0,0,5.9-3.629,4.87,4.87,0,0,0,1,1.47a4.894,4.894,0,1,0,9.778,0" transform="translate(0 4.564)" fill="#131e29"/>
    </g>
    <g id="Group_1633" data-name="Group 1633" transform="translate(80.28 41.669)">
      <path id="Path_151" data-name="Path 151" d="M1.41,2.941A5.6,5.6,0,0,1-4.44-3.035c0-3.384,2.075-6.1,5.85-6.1A5.739,5.739,0,0,1,5.985-6.872l-.727.6A4.9,4.9,0,0,0,1.41-8.2c-3.08,0-4.852,2.213-4.852,5.164A4.694,4.694,0,0,0,1.41,2.007,4.8,4.8,0,0,0,5.258.1l.727.6A5.6,5.6,0,0,1,1.41,2.941Z" transform="translate(4.44 9.134)" fill="#131e29"/>
    </g>
    <g id="Group_1634" data-name="Group 1634" transform="translate(51.853 41.653)">
      <path id="Path_152" data-name="Path 152" d="M0,2.5.382,1.475A4.621,4.621,0,0,0,4.142,3.4c1.626,0,2.827-.845,2.827-2.164,0-1.657-1.332-2.066-2.991-2.714S.466-2.786.466-4.761A3.24,3.24,0,0,1,3.987-7.77a5.935,5.935,0,0,1,3.62,1.327l-.362.973A5.1,5.1,0,0,0,3.979-6.845,2.232,2.232,0,0,0,1.487-4.819c-.009,1.434,1.3,1.828,2.819,2.435,1.951.779,3.668,1.319,3.668,3.517,0,1.959-1.707,3.19-3.832,3.19A5.548,5.548,0,0,1,0,2.5" transform="translate(0 7.77)" fill="#131e29"/>
    </g>
    <g id="Group_1635" data-name="Group 1635" transform="translate(62.856 41.861)">
      <path id="Path_153" data-name="Path 153" d="M.9.22H-2.822v-.9H5.61v.9H1.835V11H.9Z" transform="translate(2.822 0.682)" fill="#131e29"/>
    </g>
    <g id="Group_1636" data-name="Group 1636" transform="translate(41.176 41.86)">
      <path id="Path_154" data-name="Path 154" d="M0,0H7.446V.9H.939V5.37H6.408v.9H.939v4.5h6.5v.9H0Z" transform="translate(0 0.001)" fill="#131e29"/>
    </g>
    <g id="Group_1637" data-name="Group 1637" transform="translate(21.238 41.861)">
      <path id="Path_155" data-name="Path 155" d="M4.033,0,0,11.679H-1.045L-4.313,1.4h-.017L-7.557,11.679H-8.6L-12.7,0h1.061L-8.1,10.114h.034L-4.9,0h1.138L-.54,10.145h.034L2.964,0Z" transform="translate(12.703)" fill="#131e29"/>
    </g>
  </g>
</svg>
