<?xml version="1.0" encoding="UTF-8"?>
<svg xmlns="http://www.w3.org/2000/svg" xmlns:xlink="http://www.w3.org/1999/xlink" width="px" height="px" viewBox="0 0 42 20" version="1.1">
<g id="surface1">
<path style=" stroke:none;fill-rule:nonzero;fill:rgb(100%,27.843137%,7.45098%);fill-opacity:1;" d="M 32.214844 2.246094 L 34.195312 7.652344 L 30.863281 5.929688 Z M 32.191406 0 L 29.871094 6.324219 L 35.597656 9.289062 Z M 32.191406 0 "/>
<path style=" stroke:none;fill-rule:nonzero;fill:rgb(7.45098%,11.764706%,16.078431%);fill-opacity:1;" d="M 7.054688 6.109375 L 6.496094 6.109375 L 5.375 9.167969 L 5.996094 9.167969 L 6.199219 8.554688 L 7.347656 8.554688 L 7.554688 9.167969 L 8.175781 9.167969 Z M 6.773438 8.039062 L 6.371094 8.039062 L 6.773438 6.839844 L 6.777344 6.839844 L 7.179688 8.039062 Z M 6.773438 8.039062 "/>
<path style=" stroke:none;fill-rule:nonzero;fill:rgb(7.45098%,11.764706%,16.078431%);fill-opacity:1;" d="M 13.195312 6.109375 L 12.636719 6.109375 L 11.515625 9.167969 L 12.136719 9.167969 L 12.339844 8.554688 L 13.488281 8.554688 L 13.695312 9.167969 L 14.316406 9.167969 Z M 12.914062 8.039062 L 12.511719 8.039062 L 12.914062 6.839844 L 12.917969 6.839844 L 13.316406 8.039062 Z M 12.914062 8.039062 "/>
<path style=" stroke:none;fill-rule:nonzero;fill:rgb(7.45098%,11.764706%,16.078431%);fill-opacity:1;" d="M 17.71875 6.109375 L 17.71875 9.167969 L 17.109375 9.167969 L 15.785156 7.140625 L 15.777344 7.140625 L 15.777344 9.167969 L 15.1875 9.167969 L 15.1875 6.109375 L 15.777344 6.109375 L 17.117188 8.175781 L 17.125 8.175781 L 17.125 6.109375 Z M 17.71875 6.109375 "/>
<path style=" stroke:none;fill-rule:nonzero;fill:rgb(7.45098%,11.764706%,16.078431%);fill-opacity:1;" d="M 19.5 6.652344 L 18.671875 6.652344 L 18.671875 6.109375 L 20.925781 6.109375 L 20.925781 6.652344 L 20.09375 6.652344 L 20.09375 9.167969 L 19.5 9.167969 Z M 19.5 6.652344 "/>
<path style=" stroke:none;fill-rule:nonzero;fill:rgb(7.45098%,11.764706%,16.078431%);fill-opacity:1;" d="M 21.9375 6.109375 L 22.539062 6.109375 L 22.539062 9.167969 L 21.9375 9.167969 Z M 21.9375 6.109375 "/>
<path style=" stroke:none;fill-rule:nonzero;fill:rgb(7.45098%,11.764706%,16.078431%);fill-opacity:1;" d="M 9.585938 9.167969 L 10.105469 9.167969 L 11.226562 6.109375 L 10.582031 6.109375 L 9.847656 8.304688 L 9.839844 8.304688 L 9.109375 6.109375 L 8.464844 6.109375 L 9.585938 9.167969 L 10.105469 9.167969 "/>
<path style=" stroke:none;fill-rule:nonzero;fill:rgb(7.45098%,11.764706%,16.078431%);fill-opacity:1;" d="M 30.398438 13.3125 L 30.496094 13.050781 C 30.714844 13.359375 31.070312 13.546875 31.445312 13.542969 C 31.859375 13.542969 32.160156 13.328125 32.160156 12.988281 C 32.160156 12.566406 31.824219 12.460938 31.40625 12.292969 C 30.984375 12.128906 30.515625 11.957031 30.515625 11.453125 C 30.53125 11.230469 30.632812 11.019531 30.800781 10.875 C 30.96875 10.730469 31.1875 10.660156 31.40625 10.679688 C 31.742188 10.6875 32.0625 10.808594 32.324219 11.019531 L 32.230469 11.269531 C 32.007812 11.054688 31.714844 10.929688 31.40625 10.917969 C 31.253906 10.898438 31.101562 10.945312 30.980469 11.042969 C 30.863281 11.140625 30.789062 11.28125 30.773438 11.4375 C 30.773438 11.804688 31.101562 11.90625 31.488281 12.0625 C 31.980469 12.261719 32.414062 12.398438 32.414062 12.964844 C 32.414062 13.464844 31.984375 13.78125 31.445312 13.78125 C 31.046875 13.785156 30.667969 13.613281 30.398438 13.3125 "/>
<path style=" stroke:none;fill-rule:nonzero;fill:rgb(7.45098%,11.764706%,16.078431%);fill-opacity:1;" d="M 34.125 10.964844 L 33.183594 10.964844 L 33.183594 10.734375 L 35.316406 10.734375 L 35.316406 10.964844 L 34.359375 10.964844 L 34.359375 13.730469 L 34.125 13.730469 Z M 34.125 10.964844 "/>
<path style=" stroke:none;fill-rule:nonzero;fill:rgb(7.45098%,11.764706%,16.078431%);fill-opacity:1;" d="M 29.148438 12.941406 L 27.742188 12.941406 L 27.453125 13.730469 L 27.199219 13.730469 L 28.296875 10.734375 L 28.59375 10.734375 L 29.691406 13.726562 L 29.4375 13.726562 Z M 29.0625 12.710938 L 28.445312 11.027344 L 28.441406 11.027344 L 27.824219 12.710938 Z M 29.0625 12.710938 "/>
<path style=" stroke:none;fill-rule:nonzero;fill:rgb(7.45098%,11.764706%,16.078431%);fill-opacity:1;" d="M 23.644531 12.226562 C 23.625 11.816406 23.777344 11.417969 24.058594 11.125 C 24.339844 10.832031 24.730469 10.671875 25.136719 10.679688 C 25.539062 10.671875 25.929688 10.832031 26.210938 11.125 C 26.492188 11.421875 26.640625 11.820312 26.621094 12.226562 C 26.640625 12.636719 26.492188 13.039062 26.210938 13.332031 C 25.929688 13.625 25.539062 13.789062 25.136719 13.78125 C 24.730469 13.789062 24.339844 13.628906 24.058594 13.332031 C 23.773438 13.039062 23.625 12.636719 23.644531 12.226562 M 26.371094 12.226562 C 26.386719 11.886719 26.265625 11.550781 26.03125 11.304688 C 25.796875 11.058594 25.472656 10.917969 25.136719 10.921875 C 24.796875 10.917969 24.472656 11.054688 24.238281 11.304688 C 24.003906 11.550781 23.878906 11.886719 23.894531 12.226562 C 23.875 12.6875 24.105469 13.125 24.496094 13.359375 C 24.890625 13.597656 25.378906 13.597656 25.769531 13.359375 C 26.160156 13.125 26.390625 12.6875 26.371094 12.226562 "/>
<path style=" stroke:none;fill-rule:nonzero;fill:rgb(7.45098%,11.764706%,16.078431%);fill-opacity:1;" d="M 21.792969 13.78125 C 21.386719 13.800781 20.996094 13.644531 20.710938 13.351562 C 20.429688 13.058594 20.285156 12.65625 20.3125 12.25 C 20.3125 11.378906 20.835938 10.683594 21.792969 10.683594 C 22.246094 10.683594 22.675781 10.898438 22.949219 11.265625 L 22.765625 11.417969 C 22.535156 11.109375 22.175781 10.925781 21.792969 10.925781 C 21.011719 10.925781 20.5625 11.492188 20.5625 12.246094 C 20.539062 12.589844 20.660156 12.925781 20.894531 13.171875 C 21.128906 13.417969 21.453125 13.554688 21.792969 13.542969 C 22.175781 13.542969 22.535156 13.359375 22.765625 13.050781 L 22.949219 13.207031 C 22.675781 13.574219 22.246094 13.789062 21.792969 13.78125 Z M 21.792969 13.78125 "/>
<path style=" stroke:none;fill-rule:nonzero;fill:rgb(7.45098%,11.764706%,16.078431%);fill-opacity:1;" d="M 13.121094 13.3125 L 13.214844 13.050781 C 13.4375 13.359375 13.789062 13.546875 14.167969 13.542969 C 14.578125 13.542969 14.882812 13.328125 14.882812 12.988281 C 14.882812 12.566406 14.546875 12.460938 14.125 12.292969 C 13.707031 12.128906 13.238281 11.957031 13.238281 11.453125 C 13.253906 11.230469 13.355469 11.019531 13.523438 10.875 C 13.691406 10.730469 13.910156 10.660156 14.128906 10.679688 C 14.460938 10.6875 14.785156 10.808594 15.042969 11.019531 L 14.953125 11.269531 C 14.726562 11.054688 14.433594 10.929688 14.125 10.917969 C 13.972656 10.898438 13.820312 10.945312 13.703125 11.042969 C 13.582031 11.140625 13.507812 11.28125 13.496094 11.4375 C 13.492188 11.804688 13.824219 11.90625 14.207031 12.0625 C 14.703125 12.261719 15.136719 12.398438 15.136719 12.964844 C 15.136719 13.464844 14.703125 13.78125 14.167969 13.78125 C 13.769531 13.785156 13.386719 13.613281 13.121094 13.3125 "/>
<path style=" stroke:none;fill-rule:nonzero;fill:rgb(7.45098%,11.764706%,16.078431%);fill-opacity:1;" d="M 16.84375 10.964844 L 15.902344 10.964844 L 15.902344 10.734375 L 18.035156 10.734375 L 18.035156 10.964844 L 17.082031 10.964844 L 17.082031 13.730469 L 16.84375 13.730469 Z M 16.84375 10.964844 "/>
<path style=" stroke:none;fill-rule:nonzero;fill:rgb(7.45098%,11.764706%,16.078431%);fill-opacity:1;" d="M 10.417969 10.734375 L 12.300781 10.734375 L 12.300781 10.964844 L 10.65625 10.964844 L 10.65625 12.109375 L 12.039062 12.109375 L 12.039062 12.339844 L 10.65625 12.339844 L 10.65625 13.496094 L 12.300781 13.496094 L 12.300781 13.726562 L 10.417969 13.726562 Z M 10.417969 10.734375 "/>
<path style=" stroke:none;fill-rule:nonzero;fill:rgb(7.45098%,11.764706%,16.078431%);fill-opacity:1;" d="M 9.609375 10.734375 L 8.585938 13.726562 L 8.324219 13.726562 L 7.496094 11.09375 L 7.492188 11.09375 L 6.675781 13.726562 L 6.410156 13.726562 L 5.375 10.734375 L 5.644531 10.734375 L 6.539062 13.328125 L 6.546875 13.328125 L 7.347656 10.734375 L 7.636719 10.734375 L 8.449219 13.335938 L 8.460938 13.335938 L 9.335938 10.734375 Z M 9.609375 10.734375 "/>
</g>
</svg>
