<svg xmlns="http://www.w3.org/2000/svg" xmlns:xlink="http://www.w3.org/1999/xlink" width="300" height="600" viewBox="0 0 300 600"><defs><clipPath id="a"><rect width="145" height="70.493" fill="none"/></clipPath><clipPath id="c"><rect width="300" height="600"/></clipPath></defs><g id="b" clip-path="url(#c)"><rect width="300" height="95" transform="translate(0 505)" fill="#0b2d27"/><text transform="translate(151 342)" fill="#fff" font-size="10" font-family="GlyphaLT-Light, Glypha LT" font-weight="300" opacity="0"><tspan x="-26.625" y="0">Terms apply</tspan></text><rect width="300" height="600" fill="none"/><g transform="translate(78 517.254)"><g transform="translate(98.07 6.987)" opacity="0"><path d="M1933.089,214.651h.641v3.356h-.641a2.684,2.684,0,0,0-2.778-2.875c-1.91,0-3.393,1.431-3.393,4.291,0,2.887,1.483,4.317,3.3,4.317a2.726,2.726,0,0,0,2.845-2.967v-.668h-1.576v-.561h3.407v.561h-1.108v4.117h-.722v-1.537h-.04a2.93,2.93,0,0,1-2.738,1.7c-2.818,0-4.167-2.287-4.167-4.946s1.349-4.946,4.261-4.946a2.691,2.691,0,0,1,2.685,1.6h.027Z" transform="translate(-1925.462 -214.491)" fill="#fff"/><path d="M1995.166,240.777h1.068V235h-1.068v-.561h1.789v1.23h.027a1.855,1.855,0,0,1,1.8-1.417,1.315,1.315,0,0,1,.374.04v.642a1.122,1.122,0,0,0-.32-.04c-1.269,0-1.884,1.056-1.884,2.513v3.368h1.309v.561h-3.1Z" transform="translate(-1985.27 -231.607)" fill="#fff"/><path d="M2030.91,238.023c.027,1.791.828,2.941,2.231,2.941a1.844,1.844,0,0,0,2.017-1.685h.641a2.484,2.484,0,0,1-2.657,2.246c-2.017,0-2.952-1.523-2.952-3.636s.935-3.636,2.952-3.636,2.792,1.831,2.792,3.769Zm4.3-.561c-.039-1.644-.788-2.647-2.163-2.647-1.216,0-2,1.082-2.137,2.647Z" transform="translate(-2015.606 -231.607)" fill="#fff"/><path d="M2080.322,236.43a2.168,2.168,0,0,1,2.391-2.179c1.87,0,2.4,1.016,2.4,2.313v4.21h.921v.562h-1.563v-1.4h-.027a2.139,2.139,0,0,1-2.271,1.59,1.933,1.933,0,0,1-2.1-2.059c0-1.43.855-2.245,2.858-2.245h1.456v-.509c0-1.35-.655-1.9-1.656-1.9a1.587,1.587,0,0,0-1.7,1.617Zm4.074,1.39c-.455-.013-.869-.039-1.269-.039-1.657,0-2.324.575-2.324,1.724a1.411,1.411,0,0,0,1.536,1.457c1.456,0,2.057-1.377,2.057-2.74Z" transform="translate(-2058.822 -231.605)" fill="#fff"/><path d="M2128.21,222.943l.721-.267v1.738h1.857v.561h-1.857V229.8c0,.841.334,1.135.682,1.135.548,0,.828-.468.828-1.323v-.147H2131v.254c0,1.056-.534,1.778-1.456,1.778s-1.336-.535-1.336-1.538v-4.985h-1.229v-.561h1.229Z" transform="translate(-2099.444 -221.58)" fill="#fff"/><path d="M1924.016,325.047,1922,316.038h-.775v-.561h2.992v.561h-1.5l1.789,8.207h.027l2.191-8.769h1.069l2.19,8.769h.027l1.79-8.207h-1.416v-.561h2.912v.561h-.774l-2.016,9.009h-1l-2.231-8.849h-.027l-2.23,8.849Z" transform="translate(-1921.224 -301.951)" fill="#fff"/><path d="M2012.363,337.809c.026,1.791.828,2.941,2.23,2.941a1.844,1.844,0,0,0,2.017-1.684h.641a2.484,2.484,0,0,1-2.658,2.246c-2.017,0-2.952-1.524-2.952-3.636s.935-3.636,2.952-3.636,2.792,1.831,2.792,3.769Zm4.3-.561c-.04-1.644-.788-2.647-2.163-2.647-1.216,0-2,1.082-2.137,2.647Z" transform="translate(-1999.54 -318.029)" fill="#fff"/><path d="M2061.936,338.7h.561c.053,1.377.815,2.045,1.843,2.045s1.683-.549,1.683-1.5c0-.828-.374-1.109-1.482-1.283l-.868-.134c-1.069-.188-1.67-.682-1.67-1.644a2.1,2.1,0,0,1,2.218-2.153,1.826,1.826,0,0,1,1.829,1h.027v-.816h.561v2.366h-.561v-.374a1.58,1.58,0,0,0-1.749-1.617,1.461,1.461,0,0,0-1.6,1.5c0,.722.534,1,1.215,1.11l1,.16c1.269.2,1.8.775,1.8,1.817,0,1.417-.921,2.126-2.377,2.126a1.792,1.792,0,0,1-1.857-1.11h-.013v.923h-.561Z" transform="translate(-2043.104 -318.026)" fill="#fff"/><path d="M2104.075,322.729l.721-.267V324.2h1.857v.562H2104.8v4.826c0,.841.334,1.136.682,1.136.548,0,.828-.468.828-1.324v-.147h.561v.254c0,1.056-.534,1.778-1.456,1.778s-1.336-.535-1.336-1.538v-4.985h-1.229V324.2h1.229Z" transform="translate(-2078.54 -308.001)" fill="#fff"/><path d="M2139.786,337.809c.027,1.791.828,2.941,2.23,2.941a1.844,1.844,0,0,0,2.017-1.684h.641a2.484,2.484,0,0,1-2.658,2.246c-2.016,0-2.952-1.524-2.952-3.636s.936-3.636,2.952-3.636,2.792,1.831,2.792,3.769Zm4.3-.561c-.04-1.644-.788-2.647-2.163-2.647-1.216,0-2,1.082-2.137,2.647Z" transform="translate(-2109.91 -318.029)" fill="#fff"/><path d="M2187.163,340.562h1.068v-5.775h-1.068v-.561h1.79v1.23h.027a1.855,1.855,0,0,1,1.8-1.417,1.319,1.319,0,0,1,.374.04v.642a1.123,1.123,0,0,0-.321-.04c-1.269,0-1.883,1.056-1.883,2.513v3.368h1.309v.561h-3.1Z" transform="translate(-2151.572 -318.028)" fill="#fff"/><path d="M2220.393,340.562h1.068v-5.775h-1.068v-.561h1.789v1.083h.028a2.02,2.02,0,0,1,2.016-1.27c1.456,0,2.07.815,2.07,2.553v3.97h.989v.561h-2.858v-.561h1.149v-3.97c0-1.363-.521-1.992-1.576-1.992s-1.817.99-1.817,2.593v3.368h1.069v.561h-2.858Z" transform="translate(-2180.355 -318.028)" fill="#fff"/><path d="M1923.223,424.271h1.335v-8.448h-1.335v-.561h4.034c1.936,0,2.712.961,2.712,2.646a2.178,2.178,0,0,1-1.817,2.259v.027c.8.16,1.082.8,1.416,1.978l.588,2.1h.961v.561h-1.589l-.4-1.6c-.587-2.339-.921-2.82-2.23-2.82h-1.616v3.863h1.336v.561h-3.393Zm2.057-4.424h1.763a1.866,1.866,0,0,0,2.123-1.912c0-1.323-.6-2.112-2.244-2.112h-1.643Z" transform="translate(-1922.955 -388.373)" fill="#fff"/><path d="M2035.278,426h1.148v-5.775h-1.148v-.561h1.87V426h1.069v.561h-2.939Zm1.068-8.742h.881v.962h-.881Z" transform="translate(-2020.014 -390.097)" fill="#fff"/><path d="M2061.122,424.271h1.149v-8.448h-1.149v-.561h1.87v9.009h1.068v.561h-2.938Z" transform="translate(-2042.399 -388.373)" fill="#fff"/><path d="M2085.884,435.781h-.614v-.561h2.4v.561h-1.069l1.616,5.534h.027l1.643-6.1h.961l1.643,6.1h.027l1.616-5.534h-.962v-.561h2.3v.561h-.615L2093,442.117h-.962l-1.656-6.176h-.027l-1.656,6.176h-.961Z" transform="translate(-2063.315 -405.657)" fill="#fff"/><path d="M2167.133,436a2.168,2.168,0,0,1,2.391-2.179c1.87,0,2.4,1.016,2.4,2.313v4.21h.922v.562h-1.563v-1.4h-.027a2.139,2.139,0,0,1-2.271,1.59,1.933,1.933,0,0,1-2.1-2.059c0-1.43.855-2.246,2.858-2.246h1.456v-.508c0-1.35-.655-1.9-1.656-1.9a1.587,1.587,0,0,0-1.7,1.617Zm4.074,1.39c-.455-.013-.869-.04-1.269-.04-1.657,0-2.324.575-2.324,1.725a1.412,1.412,0,0,0,1.536,1.457c1.456,0,2.057-1.377,2.057-2.74Z" transform="translate(-2134.015 -404.445)" fill="#fff"/><path d="M2214.19,435.219h2.351v.561h-1l1.9,5.293h.027l1.9-5.293h-1v-.561h2.191v.561h-.468l-2.671,7.312c-.427,1.176-.921,1.43-1.576,1.43a2.18,2.18,0,0,1-.654-.08v-.561a1.581,1.581,0,0,0,.547.08c.535,0,.762-.2,1.363-1.845l-2.271-6.336h-.627Z" transform="translate(-2174.982 -405.657)" fill="#fff"/><path d="M2167.133,436a2.168,2.168,0,0,1,2.391-2.179c1.87,0,2.4,1.016,2.4,2.313v4.21h.922v.562h-1.563v-1.4h-.027a2.139,2.139,0,0,1-2.271,1.59,1.933,1.933,0,0,1-2.1-2.059c0-1.43.855-2.246,2.858-2.246h1.456v-.508c0-1.35-.655-1.9-1.656-1.9a1.587,1.587,0,0,0-1.7,1.617Zm4.074,1.39c-.455-.013-.869-.04-1.269-.04-1.657,0-2.324.575-2.324,1.725a1.412,1.412,0,0,0,1.536,1.457c1.456,0,2.057-1.377,2.057-2.74Z" transform="translate(-2158.083 -404.445)" fill="#fff"/></g><g transform="translate(98.07 6.987)" opacity="0"><path d="M1933.089,214.651h.641v3.356h-.641a2.684,2.684,0,0,0-2.778-2.875c-1.91,0-3.393,1.431-3.393,4.291,0,2.887,1.483,4.317,3.3,4.317a2.726,2.726,0,0,0,2.845-2.967v-.668h-1.576v-.561h3.407v.561h-1.108v4.117h-.722v-1.537h-.04a2.93,2.93,0,0,1-2.738,1.7c-2.818,0-4.167-2.287-4.167-4.946s1.349-4.946,4.261-4.946a2.691,2.691,0,0,1,2.685,1.6h.027Z" transform="translate(-1925.462 -214.491)" fill="#fff"/><path d="M1995.166,240.777h1.068V235h-1.068v-.561h1.789v1.23h.027a1.855,1.855,0,0,1,1.8-1.417,1.315,1.315,0,0,1,.374.04v.642a1.122,1.122,0,0,0-.32-.04c-1.269,0-1.884,1.056-1.884,2.513v3.368h1.309v.561h-3.1Z" transform="translate(-1985.27 -231.607)" fill="#fff"/><path d="M2030.91,238.023c.027,1.791.828,2.941,2.231,2.941a1.844,1.844,0,0,0,2.017-1.685h.641a2.484,2.484,0,0,1-2.657,2.246c-2.017,0-2.952-1.523-2.952-3.636s.935-3.636,2.952-3.636,2.792,1.831,2.792,3.769Zm4.3-.561c-.039-1.644-.788-2.647-2.163-2.647-1.216,0-2,1.082-2.137,2.647Z" transform="translate(-2015.606 -231.607)" fill="#fff"/><path d="M2080.322,236.43a2.168,2.168,0,0,1,2.391-2.179c1.87,0,2.4,1.016,2.4,2.313v4.21h.921v.562h-1.563v-1.4h-.027a2.139,2.139,0,0,1-2.271,1.59,1.933,1.933,0,0,1-2.1-2.059c0-1.43.855-2.245,2.858-2.245h1.456v-.509c0-1.35-.655-1.9-1.656-1.9a1.587,1.587,0,0,0-1.7,1.617Zm4.074,1.39c-.455-.013-.869-.039-1.269-.039-1.657,0-2.324.575-2.324,1.724a1.411,1.411,0,0,0,1.536,1.457c1.456,0,2.057-1.377,2.057-2.74Z" transform="translate(-2058.822 -231.605)" fill="#fff"/><path d="M2128.21,222.943l.721-.267v1.738h1.857v.561h-1.857V229.8c0,.841.334,1.135.682,1.135.548,0,.828-.468.828-1.323v-.147H2131v.254c0,1.056-.534,1.778-1.456,1.778s-1.336-.535-1.336-1.538v-4.985h-1.229v-.561h1.229Z" transform="translate(-2099.444 -221.58)" fill="#fff"/><path d="M1924.016,325.047,1922,316.038h-.775v-.561h2.992v.561h-1.5l1.789,8.207h.027l2.191-8.769h1.069l2.19,8.769h.027l1.79-8.207h-1.416v-.561h2.912v.561h-.774l-2.016,9.009h-1l-2.231-8.849h-.027l-2.23,8.849Z" transform="translate(-1921.224 -301.951)" fill="#fff"/><path d="M2012.363,337.809c.026,1.791.828,2.941,2.23,2.941a1.844,1.844,0,0,0,2.017-1.684h.641a2.484,2.484,0,0,1-2.658,2.246c-2.017,0-2.952-1.524-2.952-3.636s.935-3.636,2.952-3.636,2.792,1.831,2.792,3.769Zm4.3-.561c-.04-1.644-.788-2.647-2.163-2.647-1.216,0-2,1.082-2.137,2.647Z" transform="translate(-1999.54 -318.029)" fill="#fff"/><path d="M2061.936,338.7h.561c.053,1.377.815,2.045,1.843,2.045s1.683-.549,1.683-1.5c0-.828-.374-1.109-1.482-1.283l-.868-.134c-1.069-.188-1.67-.682-1.67-1.644a2.1,2.1,0,0,1,2.218-2.153,1.826,1.826,0,0,1,1.829,1h.027v-.816h.561v2.366h-.561v-.374a1.58,1.58,0,0,0-1.749-1.617,1.461,1.461,0,0,0-1.6,1.5c0,.722.534,1,1.215,1.11l1,.16c1.269.2,1.8.775,1.8,1.817,0,1.417-.921,2.126-2.377,2.126a1.792,1.792,0,0,1-1.857-1.11h-.013v.923h-.561Z" transform="translate(-2043.104 -318.026)" fill="#fff"/><path d="M2104.075,322.729l.721-.267V324.2h1.857v.562H2104.8v4.826c0,.841.334,1.136.682,1.136.548,0,.828-.468.828-1.324v-.147h.561v.254c0,1.056-.534,1.778-1.456,1.778s-1.336-.535-1.336-1.538v-4.985h-1.229V324.2h1.229Z" transform="translate(-2078.54 -308.001)" fill="#fff"/><path d="M2139.786,337.809c.027,1.791.828,2.941,2.23,2.941a1.844,1.844,0,0,0,2.017-1.684h.641a2.484,2.484,0,0,1-2.658,2.246c-2.016,0-2.952-1.524-2.952-3.636s.936-3.636,2.952-3.636,2.792,1.831,2.792,3.769Zm4.3-.561c-.04-1.644-.788-2.647-2.163-2.647-1.216,0-2,1.082-2.137,2.647Z" transform="translate(-2109.91 -318.029)" fill="#fff"/><path d="M2187.163,340.562h1.068v-5.775h-1.068v-.561h1.79v1.23h.027a1.855,1.855,0,0,1,1.8-1.417,1.319,1.319,0,0,1,.374.04v.642a1.123,1.123,0,0,0-.321-.04c-1.269,0-1.883,1.056-1.883,2.513v3.368h1.309v.561h-3.1Z" transform="translate(-2151.572 -318.028)" fill="#fff"/><path d="M2220.393,340.562h1.068v-5.775h-1.068v-.561h1.789v1.083h.028a2.02,2.02,0,0,1,2.016-1.27c1.456,0,2.07.815,2.07,2.553v3.97h.989v.561h-2.858v-.561h1.149v-3.97c0-1.363-.521-1.992-1.576-1.992s-1.817.99-1.817,2.593v3.368h1.069v.561h-2.858Z" transform="translate(-2180.355 -318.028)" fill="#fff"/><path d="M1923.223,424.271h1.335v-8.448h-1.335v-.561h4.034c1.936,0,2.712.961,2.712,2.646a2.178,2.178,0,0,1-1.817,2.259v.027c.8.16,1.082.8,1.416,1.978l.588,2.1h.961v.561h-1.589l-.4-1.6c-.587-2.339-.921-2.82-2.23-2.82h-1.616v3.863h1.336v.561h-3.393Zm2.057-4.424h1.763a1.866,1.866,0,0,0,2.123-1.912c0-1.323-.6-2.112-2.244-2.112h-1.643Z" transform="translate(-1922.955 -388.373)" fill="#fff"/><path d="M2035.278,426h1.148v-5.775h-1.148v-.561h1.87V426h1.069v.561h-2.939Zm1.068-8.742h.881v.962h-.881Z" transform="translate(-2020.014 -390.097)" fill="#fff"/><path d="M2061.122,424.271h1.149v-8.448h-1.149v-.561h1.87v9.009h1.068v.561h-2.938Z" transform="translate(-2042.399 -388.373)" fill="#fff"/><path d="M2085.884,435.781h-.614v-.561h2.4v.561h-1.069l1.616,5.534h.027l1.643-6.1h.961l1.643,6.1h.027l1.616-5.534h-.962v-.561h2.3v.561h-.615L2093,442.117h-.962l-1.656-6.176h-.027l-1.656,6.176h-.961Z" transform="translate(-2063.315 -405.657)" fill="#fff"/><path d="M2167.133,436a2.168,2.168,0,0,1,2.391-2.179c1.87,0,2.4,1.016,2.4,2.313v4.21h.922v.562h-1.563v-1.4h-.027a2.139,2.139,0,0,1-2.271,1.59,1.933,1.933,0,0,1-2.1-2.059c0-1.43.855-2.246,2.858-2.246h1.456v-.508c0-1.35-.655-1.9-1.656-1.9a1.587,1.587,0,0,0-1.7,1.617Zm4.074,1.39c-.455-.013-.869-.04-1.269-.04-1.657,0-2.324.575-2.324,1.725a1.412,1.412,0,0,0,1.536,1.457c1.456,0,2.057-1.377,2.057-2.74Z" transform="translate(-2134.015 -404.445)" fill="#fff"/><path d="M2214.19,435.219h2.351v.561h-1l1.9,5.293h.027l1.9-5.293h-1v-.561h2.191v.561h-.468l-2.671,7.312c-.427,1.176-.921,1.43-1.576,1.43a2.18,2.18,0,0,1-.654-.08v-.561a1.581,1.581,0,0,0,.547.08c.535,0,.762-.2,1.363-1.845l-2.271-6.336h-.627Z" transform="translate(-2174.982 -405.657)" fill="#fff"/><path d="M2167.133,436a2.168,2.168,0,0,1,2.391-2.179c1.87,0,2.4,1.016,2.4,2.313v4.21h.922v.562h-1.563v-1.4h-.027a2.139,2.139,0,0,1-2.271,1.59,1.933,1.933,0,0,1-2.1-2.059c0-1.43.855-2.246,2.858-2.246h1.456v-.508c0-1.35-.655-1.9-1.656-1.9a1.587,1.587,0,0,0-1.7,1.617Zm4.074,1.39c-.455-.013-.869-.04-1.269-.04-1.657,0-2.324.575-2.324,1.725a1.412,1.412,0,0,0,1.536,1.457c1.456,0,2.057-1.377,2.057-2.74Z" transform="translate(-2158.083 -404.445)" fill="#fff"/></g><path d="M1657.454,293.951a6.8,6.8,0,0,0-6.8-6.806h-10.307v19.117h4.53v-5.5h5.053l2.566,5.5h4.96l-3.082-6.613a6.8,6.8,0,0,0,3.082-5.7m-12.58-2.274h5.776a2.275,2.275,0,0,1,.053,4.55h-5.828Z" transform="translate(-1579.865 -270.426)" fill="#fff" opacity="0"/><path d="M1348.81,190.947l-9.55-28.664-9.548,28.663-7.162-21.5h-4.775l11.937,35.829,9.549-28.663,9.549,28.662,11.937-35.828h-4.775Z" transform="translate(-1300.466 -162.283)" fill="#fff" opacity="0"/><path d="M1203.847,290.544h-5.261v4.532h3.7v1.967a5.625,5.625,0,1,1,0-8.467l1.958-4.2a10.158,10.158,0,1,0,2.573,14.382v-8.214Z" transform="translate(-1188.436 -266.536)" fill="#fff" opacity="0"/><rect width="0.726" height="52.729" transform="translate(87.782 0.271)" fill="#fff" stroke="#fff" stroke-width="0.5" opacity="0"/><g clip-path="url(#a)"><path d="M2.979,117.742,4.5,113.555h.023l1.525,4.187ZM.544,121.156H3.081v-.477H1.932l.877-2.458H6.222l.877,2.458H5.949v.477H8.487v-.477H7.781l-2.856-7.67H4.106l-2.856,7.67H.544Zm10.411-7.669h1.388c1.946,0,3.164,1.5,3.164,3.6s-1.218,3.6-3.164,3.6H10.955ZM9.2,121.156h3.209c2.458,0,3.777-1.661,3.777-4.073s-1.32-4.074-3.777-4.074H9.2v.478H10.34v7.192H9.2Zm7.085-7.669H17l2.731,7.669h.751l2.731-7.669h.717v-.478H21.316v.478h1.218l-2.413,6.987H20.1l-2.413-6.987H18.9v-.478H16.287Zm8.273,7.669h6.02V118.63h-.547v2.048H26.312v-3.46H28.3v1.411h.547v-3.22H28.3v1.331H26.312v-3.254h3.664v1.923h.547v-2.4H24.559v.478H25.7v7.192H24.559Zm8.143-.477H31.565v.477h2.89v-.477H33.317v-7.192h.046l4.108,7.669h.922v-7.669h.978v-.478H36.64v.478h1.138v6.987h-.023l-3.994-7.465h-2.2v.478H32.7Zm10.273,0H41.633v.477h3.3v-.477H43.59v-7.124h2.265v1.98H46.4v-2.526H40.165v2.526h.547v-1.98h2.264Zm4.2-7.192h.864v4.745c0,1.832.774,3.06,2.788,3.06,1.866,0,2.788-1.229,2.788-3.06v-4.745h.864v-.478H51.769v.478H53v4.757c0,1.786-.91,2.571-2.173,2.571s-2.173-.785-2.173-2.571v-4.757h1.229v-.478H47.173Zm8.016,7.669h2.89v-.477H56.94V117.39h1.378c1.115,0,1.4.41,1.9,2.4l.342,1.365h1.354v-.477h-.819l-.5-1.787c-.285-1-.524-1.548-1.207-1.684v-.023a1.854,1.854,0,0,0,1.548-1.923c0-1.434-.659-2.253-2.31-2.253H55.188v.478h1.138v7.192H55.188Zm1.752-7.669h1.4c1.4,0,1.912.671,1.912,1.8a1.588,1.588,0,0,1-1.809,1.627h-1.5Zm5.717,7.669h6.02V118.63H68.13v2.048H64.41v-3.46H66.4v1.411h.546v-3.22H66.4v1.331H64.41v-3.254h3.664v1.923h.546v-2.4H62.657v.478h1.138v7.192H62.657ZM74.232,114H74.21a2.024,2.024,0,0,0-1.935-1.127,2.074,2.074,0,0,0-2.22,2.22c0,2.651,4.211,1.638,4.211,3.88a1.662,1.662,0,0,1-1.764,1.844c-1.3,0-1.832-1.07-1.9-2.458h-.547v2.8H70.6v-1.138h.023a1.957,1.957,0,0,0,2.094,1.274,2.157,2.157,0,0,0,2.23-2.31c0-2.9-4.21-1.695-4.21-3.994a1.543,1.543,0,0,1,1.6-1.638c1.218,0,1.843.876,1.889,2.412h.546v-2.753h-.546Zm8.716,0h-.023a2.023,2.023,0,0,0-1.935-1.127,2.073,2.073,0,0,0-2.218,2.22c0,2.651,4.21,1.638,4.21,3.88a1.661,1.661,0,0,1-1.764,1.844c-1.3,0-1.832-1.07-1.9-2.458h-.546v2.8h.546v-1.138h.023a1.958,1.958,0,0,0,2.094,1.274,2.157,2.157,0,0,0,2.231-2.31c0-2.9-4.211-1.695-4.211-3.994a1.543,1.543,0,0,1,1.6-1.638c1.218,0,1.843.876,1.889,2.412h.546v-2.753h-.546Zm4.365,6.68H85.971v.477h3.3v-.477H87.928v-7.124h2.265v1.98h.547v-2.526H84.5v2.526h.546v-1.98h2.265Zm5.748-2.937,1.524-4.187h.023l1.524,4.187Zm-2.435,3.414h2.538v-.477h-1.15l.877-2.458H96.3l.876,2.458H96.032v.477h2.537v-.477h-.705l-2.857-7.67h-.819l-2.857,7.67h-.705Zm8.658,0h2.89v-.477h-1.137V117.39h1.377c1.115,0,1.4.41,1.9,2.4l.342,1.365h1.354v-.477h-.819l-.5-1.787c-.284-1-.523-1.548-1.207-1.684v-.023a1.854,1.854,0,0,0,1.548-1.923c0-1.434-.66-2.253-2.31-2.253H99.284v.478h1.138v7.192H99.284Zm1.753-7.669h1.4c1.4,0,1.913.671,1.913,1.8a1.589,1.589,0,0,1-1.81,1.627h-1.5Zm8.088,7.192h-1.343v.477h3.3v-.477H109.74v-7.124H112v1.98h.547v-2.526h-6.236v2.526h.546v-1.98h2.265Zm11.675.477h2.89v-.477h-1.137v-7.192h1.137v-.478H120.8v.478h1.138v3.254H117.7v-3.254h1.138v-.478h-2.89v.478h1.138v7.192h-1.138v.477h2.89v-.477H117.7v-3.391h4.234v3.391H120.8Zm3.651,0h6.02V118.63h-.547v2.048H126.2v-3.46H128.2v1.411h.547v-3.22H128.2v1.331H126.2v-3.254h3.664v1.923h.547v-2.4h-5.963v.478h1.138v7.192h-1.138Zm7.006,0h2.89v-.477H133.21V117.39h1.376c1.116,0,1.4.41,1.9,2.4l.34,1.365h1.354v-.477h-.819l-.5-1.787c-.285-1-.524-1.548-1.207-1.684v-.023a1.854,1.854,0,0,0,1.548-1.923c0-1.434-.659-2.253-2.31-2.253h-3.436v.478h1.138v7.192h-1.138Zm1.753-7.669h1.4c1.4,0,1.912.671,1.912,1.8a1.589,1.589,0,0,1-1.809,1.627h-1.5Zm5.717,7.669h6.02V118.63H144.4v2.048h-3.721v-3.46h1.991v1.411h.546v-3.22h-.546v1.331h-1.991v-3.254h3.664v1.923h.546v-2.4h-5.962v.478h1.138v7.192h-1.138Z" transform="translate(-0.245 -50.8)" fill="#fff"/><path d="M186.494,12.866h.641v3.353h-.641a2.683,2.683,0,0,0-2.778-2.872c-1.909,0-3.393,1.43-3.393,4.288,0,2.884,1.483,4.314,3.3,4.314a2.725,2.725,0,0,0,2.845-2.965v-.668h-1.577v-.561H188.3v.561h-1.109V22.43h-.722V20.894h-.04a2.931,2.931,0,0,1-2.738,1.7c-2.818,0-4.167-2.285-4.167-4.942s1.349-4.942,4.261-4.942a2.691,2.691,0,0,1,2.685,1.6h.026Z" transform="translate(-80.798 -5.719)" fill="#fff"/><path d="M196.326,24.033h1.068V18.262h-1.068V17.7h1.789v1.23h.027a1.854,1.854,0,0,1,1.8-1.416,1.311,1.311,0,0,1,.374.04V18.2a1.078,1.078,0,0,0-.321-.041c-1.269,0-1.884,1.056-1.884,2.511v3.367h1.309v.56h-3.1Z" transform="translate(-88.36 -7.883)" fill="#fff"/><path d="M209.871,20.721c-.04-1.643-.788-2.645-2.163-2.645-1.216,0-2,1.082-2.138,2.645Zm-4.3.561c.027,1.789.828,2.939,2.231,2.939a1.844,1.844,0,0,0,2.017-1.683h.641a2.483,2.483,0,0,1-2.657,2.244c-2.017,0-2.952-1.522-2.952-3.633s.935-3.633,2.952-3.633,2.791,1.83,2.791,3.766Z" transform="translate(-92.196 -7.883)" fill="#fff"/><path d="M221.306,21.081c-.455-.013-.869-.04-1.269-.04-1.657,0-2.325.575-2.325,1.723a1.411,1.411,0,0,0,1.536,1.456c1.456,0,2.057-1.375,2.057-2.738Zm-4.074-1.389a2.167,2.167,0,0,1,2.391-2.177c1.87,0,2.4,1.015,2.4,2.311v4.207h.922v.562h-1.562v-1.4h-.027a2.139,2.139,0,0,1-2.271,1.589,1.932,1.932,0,0,1-2.1-2.057c0-1.43.855-2.244,2.859-2.244h1.456v-.508c0-1.349-.655-1.9-1.656-1.9a1.586,1.586,0,0,0-1.7,1.616Z" transform="translate(-97.661 -7.883)" fill="#fff"/><path d="M229.633,14.964l.721-.267v1.737h1.857v.561h-1.857v4.822c0,.841.334,1.135.682,1.135.547,0,.828-.467.828-1.322v-.147h.561v.254c0,1.056-.534,1.777-1.456,1.777s-1.336-.534-1.336-1.537V16.995H228.4v-.561h1.229Z" transform="translate(-102.798 -6.615)" fill="#fff"/><rect width="0.726" height="52.7" transform="translate(87.781 0.272)" fill="#fff"/><path d="M181.123,46.845l-2.017-9h-.775v-.561h2.992v.561h-1.5l1.789,8.2h.027l2.19-8.763H184.9l2.19,8.763h.026l1.791-8.2h-1.417v-.561h2.912v.561h-.774l-2.017,9h-1L184.382,38h-.027l-2.23,8.842Z" transform="translate(-80.262 -16.779)" fill="#fff"/><path d="M205.358,45c-.04-1.643-.788-2.645-2.163-2.645-1.216,0-2,1.082-2.137,2.645Zm-4.3.561c.026,1.789.828,2.938,2.23,2.938a1.843,1.843,0,0,0,2.017-1.683h.641a2.484,2.484,0,0,1-2.658,2.244c-2.017,0-2.952-1.523-2.952-3.633s.935-3.633,2.952-3.633,2.793,1.83,2.793,3.766Z" transform="translate(-90.165 -18.812)" fill="#fff"/><path d="M212.575,46.46h.561c.053,1.376.815,2.044,1.843,2.044s1.683-.548,1.683-1.5c0-.829-.374-1.109-1.483-1.283l-.868-.133c-1.069-.188-1.67-.681-1.67-1.643a2.1,2.1,0,0,1,2.218-2.151,1.826,1.826,0,0,1,1.829,1h.027v-.815h.561V44.35h-.561v-.375a1.579,1.579,0,0,0-1.749-1.616,1.461,1.461,0,0,0-1.6,1.5c0,.721.534,1,1.215,1.109l1,.161c1.269.2,1.8.774,1.8,1.816,0,1.416-.921,2.124-2.377,2.124a1.793,1.793,0,0,1-1.857-1.109h-.013v.922h-.561Z" transform="translate(-95.674 -18.812)" fill="#fff"/><path d="M223.76,39.248l.721-.267v1.736h1.857v.561h-1.857V46.1c0,.841.335,1.135.682,1.135.548,0,.828-.468.828-1.323v-.147h.561v.254c0,1.056-.535,1.777-1.456,1.777s-1.336-.534-1.336-1.537V41.279h-1.229v-.561h1.229Z" transform="translate(-100.155 -17.544)" fill="#fff"/><path d="M236.368,45c-.04-1.643-.788-2.645-2.163-2.645-1.216,0-2,1.082-2.138,2.645Zm-4.3.561c.027,1.789.828,2.938,2.231,2.938a1.844,1.844,0,0,0,2.017-1.683h.641a2.483,2.483,0,0,1-2.658,2.244c-2.017,0-2.952-1.523-2.952-3.633S232.28,41.8,234.3,41.8s2.792,1.83,2.792,3.766Z" transform="translate(-104.122 -18.812)" fill="#fff"/><path d="M243.05,48.317h1.068v-5.77H243.05v-.561h1.789v1.23h.027a1.854,1.854,0,0,1,1.8-1.416,1.33,1.33,0,0,1,.374.04v.641a1.111,1.111,0,0,0-.321-.04c-1.269,0-1.883,1.055-1.883,2.511v3.366h1.309v.561h-3.1Z" transform="translate(-109.39 -18.812)" fill="#fff"/><path d="M251.137,48.317h1.069v-5.77h-1.069v-.561h1.789v1.082h.027a2.02,2.02,0,0,1,2.017-1.269c1.455,0,2.069.814,2.069,2.551v3.967h.989v.561h-2.859v-.561h1.148V44.35c0-1.362-.521-1.991-1.576-1.991s-1.817.989-1.817,2.591v3.366H254v.561h-2.859Z" transform="translate(-113.029 -18.812)" fill="#fff"/><path d="M180.874,66.146h1.764a1.865,1.865,0,0,0,2.123-1.91c0-1.322-.6-2.111-2.243-2.111h-1.644Zm-2.056,4.421h1.335V62.125h-1.335v-.56h4.034c1.936,0,2.711.961,2.711,2.645a2.176,2.176,0,0,1-1.816,2.257v.027c.8.16,1.082.8,1.416,1.976l.587,2.1h.962v.561h-1.589l-.4-1.6c-.587-2.338-.921-2.818-2.23-2.818h-1.617v3.86h1.336v.561h-3.393Z" transform="translate(-80.481 -27.709)" fill="#fff"/><path d="M198.843,69.648c-.454-.013-.868-.04-1.269-.04-1.656,0-2.323.575-2.323,1.723a1.41,1.41,0,0,0,1.535,1.456c1.456,0,2.057-1.376,2.057-2.738Zm-4.074-1.389a2.168,2.168,0,0,1,2.391-2.177c1.87,0,2.4,1.015,2.4,2.311V72.6h.922v.561h-1.562v-1.4H198.9a2.14,2.14,0,0,1-2.271,1.589,1.932,1.932,0,0,1-2.1-2.056c0-1.43.855-2.245,2.859-2.245h1.456V68.54c0-1.349-.654-1.9-1.656-1.9a1.586,1.586,0,0,0-1.7,1.616Z" transform="translate(-87.552 -29.742)" fill="#fff"/><path d="M207.156,62.05h.882v.961h-.882Zm-1.068,8.736h1.148v-5.77h-1.148v-.561h1.869v6.331h1.069v.561h-2.938Z" transform="translate(-92.754 -27.927)" fill="#fff"/><path d="M212.377,70.567h1.149V62.125h-1.149v-.56h1.87v9h1.068v.561h-2.938Z" transform="translate(-95.585 -27.708)" fill="#fff"/><path d="M218.867,66.983h-.614v-.561h2.4v.561h-1.069l1.616,5.53h.027l1.643-6.091h.961l1.643,6.091h.027l1.616-5.53h-.962v-.561h2.3v.561h-.614l-1.857,6.331h-.962l-1.656-6.171h-.026l-1.657,6.171h-.961Z" transform="translate(-98.229 -29.895)" fill="#fff"/><path d="M242.432,69.648c-.455-.013-.868-.04-1.269-.04-1.656,0-2.325.575-2.325,1.723a1.411,1.411,0,0,0,1.536,1.456c1.456,0,2.057-1.376,2.057-2.738Zm-4.074-1.389a2.168,2.168,0,0,1,2.391-2.177c1.87,0,2.4,1.015,2.4,2.311V72.6h.922v.561h-1.562v-1.4h-.027a2.139,2.139,0,0,1-2.271,1.589,1.932,1.932,0,0,1-2.1-2.056c0-1.43.855-2.245,2.859-2.245h1.456V68.54c0-1.349-.655-1.9-1.656-1.9a1.586,1.586,0,0,0-1.7,1.616Z" transform="translate(-107.169 -29.742)" fill="#fff"/><path d="M249.627,66.422h2.351v.561h-1l1.9,5.29h.026l1.9-5.29h-1v-.561h2.191v.561h-.467l-2.672,7.306c-.427,1.175-.922,1.429-1.577,1.429a2.187,2.187,0,0,1-.654-.08v-.561a1.589,1.589,0,0,0,.548.08c.535,0,.762-.2,1.363-1.843l-2.271-6.331h-.628Z" transform="translate(-112.35 -29.895)" fill="#fff"/><path d="M62.51,28.648,52.961,0,43.412,28.648,36.251,7.162H31.476L43.412,42.971l9.549-28.647L62.51,42.971,74.447,7.162H69.672Z" transform="translate(-14.166 0)" fill="#fff"/><path d="M15.411,37.179H10.15v4.53h3.7v1.967a5.621,5.621,0,1,1,0-8.463l1.958-4.2a10.152,10.152,0,1,0,2.573,14.374V37.179Z" transform="translate(0 -13.184)" fill="#fff"/><path d="M114.506,34.917h5.776a2.274,2.274,0,0,1,.053,4.547h-5.829Zm12.58,2.273a6.8,6.8,0,0,0-6.8-6.8H109.977V49.494h4.529v-5.5h5.053l2.566,5.5h4.96L124,42.884a6.794,6.794,0,0,0,3.082-5.694" transform="translate(-49.497 -13.676)" fill="#fff"/></g></g></g></svg>