<svg xmlns="http://www.w3.org/2000/svg" xmlns:xlink="http://www.w3.org/1999/xlink" width="160" height="600" viewBox="0 0 160 600"><defs><clipPath id="a"><rect width="125" height="62.493" fill="none"/></clipPath><clipPath id="c"><rect width="160" height="600"/></clipPath></defs><g id="b" clip-path="url(#c)"><rect width="160" height="113" transform="translate(0 487)" fill="#0b2d27"/><g transform="translate(18 512)"><g transform="translate(78.07 6.987)" opacity="0"><path d="M1933.089,214.618h.641v2.665h-.641c-.053-1.391-1.108-2.283-2.778-2.283a3.419,3.419,0,0,0-.093,6.837c1.776,0,2.845-.966,2.845-2.357v-.531h-1.576V218.5h3.407v.446h-1.108v3.269h-.722V221h-.04c-.307.807-1.629,1.348-2.738,1.348a3.788,3.788,0,0,1-4.167-3.928c0-2.112,1.349-3.928,4.261-3.928a2.823,2.823,0,0,1,2.685,1.274h.027Z" transform="translate(-1925.462 -214.491)" fill="#fff"/><path d="M1995.166,239.434h1.068v-4.586h-1.068V234.4h1.789v.977h.027a1.833,1.833,0,0,1,1.8-1.125,1.641,1.641,0,0,1,.374.032v.509a1.4,1.4,0,0,0-.32-.032,1.784,1.784,0,0,0-1.884,2v2.675h1.309v.446h-3.1Z" transform="translate(-1985.27 -232.152)" fill="#fff"/><path d="M2030.91,237.247a2.129,2.129,0,0,0,2.231,2.335c1.028,0,1.816-.371,2.017-1.338h.641c-.254,1.2-1.255,1.784-2.657,1.784a2.889,2.889,0,1,1,2.792-2.781Zm4.3-.446a1.974,1.974,0,0,0-2.163-2.1,2.129,2.129,0,0,0-2.137,2.1Z" transform="translate(-2015.606 -232.152)" fill="#fff"/><path d="M2080.322,235.981c.067-1.157,1.056-1.73,2.391-1.73,1.87,0,2.4.807,2.4,1.837v3.344h.921v.446h-1.563v-1.114h-.027a2.173,2.173,0,0,1-2.271,1.263c-1.269,0-2.1-.616-2.1-1.635,0-1.136.855-1.783,2.858-1.783h1.456v-.4c0-1.072-.655-1.507-1.656-1.507-1.069,0-1.643.541-1.7,1.284Zm4.074,1.1c-.455-.01-.869-.031-1.269-.031-1.657,0-2.324.456-2.324,1.369,0,.69.6,1.157,1.536,1.157a1.994,1.994,0,0,0,2.057-2.176Z" transform="translate(-2058.822 -232.149)" fill="#fff"/><path d="M2128.21,222.888l.721-.212v1.38h1.857v.446h-1.857v3.832c0,.668.334.9.682.9.548,0,.828-.372.828-1.051v-.117H2131v.2a1.335,1.335,0,0,1-1.456,1.412c-.935,0-1.336-.424-1.336-1.221V224.5h-1.229v-.446h1.229Z" transform="translate(-2099.444 -221.805)" fill="#fff"/><path d="M1924.016,323.077,1922,315.922h-.775v-.446h2.992v.446h-1.5l1.789,6.518h.027l2.191-6.964h1.069l2.19,6.964h.027l1.79-6.518h-1.416v-.446h2.912v.446h-.774l-2.016,7.155h-1l-2.231-7.028h-.027l-2.23,7.028Z" transform="translate(-1921.224 -304.735)" fill="#fff"/><path d="M2012.363,337.034a2.128,2.128,0,0,0,2.23,2.335c1.029,0,1.817-.371,2.017-1.338h.641c-.254,1.2-1.255,1.784-2.658,1.784a2.889,2.889,0,1,1,2.792-2.781Zm4.3-.446a1.974,1.974,0,0,0-2.163-2.1,2.129,2.129,0,0,0-2.137,2.1Z" transform="translate(-1999.54 -321.325)" fill="#fff"/><path d="M2061.936,337.742h.561a1.648,1.648,0,0,0,1.843,1.624c1.029,0,1.683-.436,1.683-1.189,0-.658-.374-.881-1.482-1.019l-.868-.106c-1.069-.149-1.67-.541-1.67-1.305,0-1.1,1.055-1.71,2.218-1.71a1.955,1.955,0,0,1,1.829.8h.027v-.648h.561v1.879h-.561v-.3c0-.828-.748-1.284-1.749-1.284s-1.6.488-1.6,1.189c0,.573.534.8,1.215.881l1,.127c1.269.159,1.8.616,1.8,1.443,0,1.125-.921,1.688-2.377,1.688a1.879,1.879,0,0,1-1.857-.881h-.013v.733h-.561Z" transform="translate(-2043.104 -321.322)" fill="#fff"/><path d="M2104.075,322.674l.721-.212v1.38h1.857v.446H2104.8v3.832c0,.668.334.9.682.9.548,0,.828-.372.828-1.051v-.117h.561v.2a1.335,1.335,0,0,1-1.456,1.412c-.936,0-1.336-.425-1.336-1.221v-3.959h-1.229v-.446h1.229Z" transform="translate(-2078.54 -310.978)" fill="#fff"/><path d="M2139.786,337.034a2.128,2.128,0,0,0,2.23,2.335c1.029,0,1.817-.371,2.017-1.338h.641c-.254,1.2-1.255,1.784-2.658,1.784a2.889,2.889,0,1,1,2.792-2.781Zm4.3-.446a1.974,1.974,0,0,0-2.163-2.1,2.129,2.129,0,0,0-2.137,2.1Z" transform="translate(-2109.91 -321.325)" fill="#fff"/><path d="M2187.163,339.219h1.068v-4.586h-1.068v-.446h1.79v.977h.027a1.833,1.833,0,0,1,1.8-1.126,1.645,1.645,0,0,1,.374.032v.509a1.4,1.4,0,0,0-.321-.032,1.784,1.784,0,0,0-1.883,2v2.675h1.309v.446h-3.1Z" transform="translate(-2151.572 -321.324)" fill="#fff"/><path d="M2220.393,339.219h1.068v-4.586h-1.068v-.446h1.789v.86h.028a2.1,2.1,0,0,1,2.016-1.009c1.456,0,2.07.647,2.07,2.028v3.153h.989v.446h-2.858v-.446h1.149v-3.153a1.383,1.383,0,0,0-1.576-1.582,1.833,1.833,0,0,0-1.817,2.06v2.675h1.069v.446h-2.858Z" transform="translate(-2180.355 -321.324)" fill="#fff"/><path d="M1923.223,422.416h1.335v-6.709h-1.335v-.445h4.034c1.936,0,2.712.764,2.712,2.1a1.887,1.887,0,0,1-1.817,1.794v.021c.8.127,1.082.637,1.416,1.571l.588,1.667h.961v.446h-1.589l-.4-1.274c-.587-1.858-.921-2.24-2.23-2.24h-1.616v3.068h1.336v.446h-3.393Zm2.057-3.513h1.763c1.7,0,2.123-.892,2.123-1.518,0-1.051-.6-1.677-2.244-1.677h-1.643Z" transform="translate(-1922.955 -393.908)" fill="#fff"/><path d="M2035.278,424.2h1.148V419.61h-1.148v-.446h1.87V424.2h1.069v.446h-2.939Zm1.068-6.943h.881v.764h-.881Z" transform="translate(-2020.014 -395.687)" fill="#fff"/><path d="M2061.122,422.417h1.149v-6.709h-1.149v-.445h1.87v7.154h1.068v.446h-2.938Z" transform="translate(-2042.399 -393.908)" fill="#fff"/><path d="M2085.884,435.665h-.614v-.446h2.4v.446h-1.069l1.616,4.395h.027l1.643-4.841h.961l1.643,4.841h.027l1.616-4.395h-.962v-.446h2.3v.446h-.615L2093,440.7h-.962l-1.656-4.9h-.027l-1.656,4.9h-.961Z" transform="translate(-2063.315 -411.742)" fill="#fff"/><path d="M2167.133,435.55c.067-1.157,1.056-1.73,2.391-1.73,1.87,0,2.4.807,2.4,1.837V439h.922v.446h-1.563v-1.114h-.027a2.173,2.173,0,0,1-2.271,1.263c-1.269,0-2.1-.616-2.1-1.635,0-1.136.855-1.783,2.858-1.783h1.456v-.4c0-1.072-.655-1.507-1.656-1.507-1.069,0-1.643.541-1.7,1.284Zm4.074,1.1c-.455-.01-.869-.032-1.269-.032-1.657,0-2.324.457-2.324,1.37,0,.69.6,1.157,1.536,1.157a1.994,1.994,0,0,0,2.057-2.176Z" transform="translate(-2134.015 -410.492)" fill="#fff"/><path d="M2214.19,435.219h2.351v.446h-1l1.9,4.2h.027l1.9-4.2h-1v-.446h2.191v.446h-.468l-2.671,5.807a1.558,1.558,0,0,1-1.576,1.136,2.714,2.714,0,0,1-.654-.064V442.1a1.96,1.96,0,0,0,.547.064c.535,0,.762-.159,1.363-1.465l-2.271-5.032h-.627Z" transform="translate(-2174.982 -411.742)" fill="#fff"/><path d="M2167.133,435.55c.067-1.157,1.056-1.73,2.391-1.73,1.87,0,2.4.807,2.4,1.837V439h.922v.446h-1.563v-1.114h-.027a2.173,2.173,0,0,1-2.271,1.263c-1.269,0-2.1-.616-2.1-1.635,0-1.136.855-1.783,2.858-1.783h1.456v-.4c0-1.072-.655-1.507-1.656-1.507-1.069,0-1.643.541-1.7,1.284Zm4.074,1.1c-.455-.01-.869-.032-1.269-.032-1.657,0-2.324.457-2.324,1.37,0,.69.6,1.157,1.536,1.157a1.994,1.994,0,0,0,2.057-2.176Z" transform="translate(-2158.083 -410.492)" fill="#fff"/></g><g transform="translate(78.07 6.987)" opacity="0"><path d="M1933.089,214.618h.641v2.665h-.641c-.053-1.391-1.108-2.283-2.778-2.283a3.419,3.419,0,0,0-.093,6.837c1.776,0,2.845-.966,2.845-2.357v-.531h-1.576V218.5h3.407v.446h-1.108v3.269h-.722V221h-.04c-.307.807-1.629,1.348-2.738,1.348a3.788,3.788,0,0,1-4.167-3.928c0-2.112,1.349-3.928,4.261-3.928a2.823,2.823,0,0,1,2.685,1.274h.027Z" transform="translate(-1925.462 -214.491)" fill="#fff"/><path d="M1995.166,239.434h1.068v-4.586h-1.068V234.4h1.789v.977h.027a1.833,1.833,0,0,1,1.8-1.125,1.641,1.641,0,0,1,.374.032v.509a1.4,1.4,0,0,0-.32-.032,1.784,1.784,0,0,0-1.884,2v2.675h1.309v.446h-3.1Z" transform="translate(-1985.27 -232.152)" fill="#fff"/><path d="M2030.91,237.247a2.129,2.129,0,0,0,2.231,2.335c1.028,0,1.816-.371,2.017-1.338h.641c-.254,1.2-1.255,1.784-2.657,1.784a2.889,2.889,0,1,1,2.792-2.781Zm4.3-.446a1.974,1.974,0,0,0-2.163-2.1,2.129,2.129,0,0,0-2.137,2.1Z" transform="translate(-2015.606 -232.152)" fill="#fff"/><path d="M2080.322,235.981c.067-1.157,1.056-1.73,2.391-1.73,1.87,0,2.4.807,2.4,1.837v3.344h.921v.446h-1.563v-1.114h-.027a2.173,2.173,0,0,1-2.271,1.263c-1.269,0-2.1-.616-2.1-1.635,0-1.136.855-1.783,2.858-1.783h1.456v-.4c0-1.072-.655-1.507-1.656-1.507-1.069,0-1.643.541-1.7,1.284Zm4.074,1.1c-.455-.01-.869-.031-1.269-.031-1.657,0-2.324.456-2.324,1.369,0,.69.6,1.157,1.536,1.157a1.994,1.994,0,0,0,2.057-2.176Z" transform="translate(-2058.822 -232.149)" fill="#fff"/><path d="M2128.21,222.888l.721-.212v1.38h1.857v.446h-1.857v3.832c0,.668.334.9.682.9.548,0,.828-.372.828-1.051v-.117H2131v.2a1.335,1.335,0,0,1-1.456,1.412c-.935,0-1.336-.424-1.336-1.221V224.5h-1.229v-.446h1.229Z" transform="translate(-2099.444 -221.805)" fill="#fff"/><path d="M1924.016,323.077,1922,315.922h-.775v-.446h2.992v.446h-1.5l1.789,6.518h.027l2.191-6.964h1.069l2.19,6.964h.027l1.79-6.518h-1.416v-.446h2.912v.446h-.774l-2.016,7.155h-1l-2.231-7.028h-.027l-2.23,7.028Z" transform="translate(-1921.224 -304.735)" fill="#fff"/><path d="M2012.363,337.034a2.128,2.128,0,0,0,2.23,2.335c1.029,0,1.817-.371,2.017-1.338h.641c-.254,1.2-1.255,1.784-2.658,1.784a2.889,2.889,0,1,1,2.792-2.781Zm4.3-.446a1.974,1.974,0,0,0-2.163-2.1,2.129,2.129,0,0,0-2.137,2.1Z" transform="translate(-1999.54 -321.325)" fill="#fff"/><path d="M2061.936,337.742h.561a1.648,1.648,0,0,0,1.843,1.624c1.029,0,1.683-.436,1.683-1.189,0-.658-.374-.881-1.482-1.019l-.868-.106c-1.069-.149-1.67-.541-1.67-1.305,0-1.1,1.055-1.71,2.218-1.71a1.955,1.955,0,0,1,1.829.8h.027v-.648h.561v1.879h-.561v-.3c0-.828-.748-1.284-1.749-1.284s-1.6.488-1.6,1.189c0,.573.534.8,1.215.881l1,.127c1.269.159,1.8.616,1.8,1.443,0,1.125-.921,1.688-2.377,1.688a1.879,1.879,0,0,1-1.857-.881h-.013v.733h-.561Z" transform="translate(-2043.104 -321.322)" fill="#fff"/><path d="M2104.075,322.674l.721-.212v1.38h1.857v.446H2104.8v3.832c0,.668.334.9.682.9.548,0,.828-.372.828-1.051v-.117h.561v.2a1.335,1.335,0,0,1-1.456,1.412c-.936,0-1.336-.425-1.336-1.221v-3.959h-1.229v-.446h1.229Z" transform="translate(-2078.54 -310.978)" fill="#fff"/><path d="M2139.786,337.034a2.128,2.128,0,0,0,2.23,2.335c1.029,0,1.817-.371,2.017-1.338h.641c-.254,1.2-1.255,1.784-2.658,1.784a2.889,2.889,0,1,1,2.792-2.781Zm4.3-.446a1.974,1.974,0,0,0-2.163-2.1,2.129,2.129,0,0,0-2.137,2.1Z" transform="translate(-2109.91 -321.325)" fill="#fff"/><path d="M2187.163,339.219h1.068v-4.586h-1.068v-.446h1.79v.977h.027a1.833,1.833,0,0,1,1.8-1.126,1.645,1.645,0,0,1,.374.032v.509a1.4,1.4,0,0,0-.321-.032,1.784,1.784,0,0,0-1.883,2v2.675h1.309v.446h-3.1Z" transform="translate(-2151.572 -321.324)" fill="#fff"/><path d="M2220.393,339.219h1.068v-4.586h-1.068v-.446h1.789v.86h.028a2.1,2.1,0,0,1,2.016-1.009c1.456,0,2.07.647,2.07,2.028v3.153h.989v.446h-2.858v-.446h1.149v-3.153a1.383,1.383,0,0,0-1.576-1.582,1.833,1.833,0,0,0-1.817,2.06v2.675h1.069v.446h-2.858Z" transform="translate(-2180.355 -321.324)" fill="#fff"/><path d="M1923.223,422.416h1.335v-6.709h-1.335v-.445h4.034c1.936,0,2.712.764,2.712,2.1a1.887,1.887,0,0,1-1.817,1.794v.021c.8.127,1.082.637,1.416,1.571l.588,1.667h.961v.446h-1.589l-.4-1.274c-.587-1.858-.921-2.24-2.23-2.24h-1.616v3.068h1.336v.446h-3.393Zm2.057-3.513h1.763c1.7,0,2.123-.892,2.123-1.518,0-1.051-.6-1.677-2.244-1.677h-1.643Z" transform="translate(-1922.955 -393.908)" fill="#fff"/><path d="M2035.278,424.2h1.148V419.61h-1.148v-.446h1.87V424.2h1.069v.446h-2.939Zm1.068-6.943h.881v.764h-.881Z" transform="translate(-2020.014 -395.687)" fill="#fff"/><path d="M2061.122,422.417h1.149v-6.709h-1.149v-.445h1.87v7.154h1.068v.446h-2.938Z" transform="translate(-2042.399 -393.908)" fill="#fff"/><path d="M2085.884,435.665h-.614v-.446h2.4v.446h-1.069l1.616,4.395h.027l1.643-4.841h.961l1.643,4.841h.027l1.616-4.395h-.962v-.446h2.3v.446h-.615L2093,440.7h-.962l-1.656-4.9h-.027l-1.656,4.9h-.961Z" transform="translate(-2063.315 -411.742)" fill="#fff"/><path d="M2167.133,435.55c.067-1.157,1.056-1.73,2.391-1.73,1.87,0,2.4.807,2.4,1.837V439h.922v.446h-1.563v-1.114h-.027a2.173,2.173,0,0,1-2.271,1.263c-1.269,0-2.1-.616-2.1-1.635,0-1.136.855-1.783,2.858-1.783h1.456v-.4c0-1.072-.655-1.507-1.656-1.507-1.069,0-1.643.541-1.7,1.284Zm4.074,1.1c-.455-.01-.869-.032-1.269-.032-1.657,0-2.324.457-2.324,1.37,0,.69.6,1.157,1.536,1.157a1.994,1.994,0,0,0,2.057-2.176Z" transform="translate(-2134.015 -410.492)" fill="#fff"/><path d="M2214.19,435.219h2.351v.446h-1l1.9,4.2h.027l1.9-4.2h-1v-.446h2.191v.446h-.468l-2.671,5.807a1.558,1.558,0,0,1-1.576,1.136,2.714,2.714,0,0,1-.654-.064V442.1a1.96,1.96,0,0,0,.547.064c.535,0,.762-.159,1.363-1.465l-2.271-5.032h-.627Z" transform="translate(-2174.982 -411.742)" fill="#fff"/><path d="M2167.133,435.55c.067-1.157,1.056-1.73,2.391-1.73,1.87,0,2.4.807,2.4,1.837V439h.922v.446h-1.563v-1.114h-.027a2.173,2.173,0,0,1-2.271,1.263c-1.269,0-2.1-.616-2.1-1.635,0-1.136.855-1.783,2.858-1.783h1.456v-.4c0-1.072-.655-1.507-1.656-1.507-1.069,0-1.643.541-1.7,1.284Zm4.074,1.1c-.455-.01-.869-.032-1.269-.032-1.657,0-2.324.457-2.324,1.37,0,.69.6,1.157,1.536,1.157a1.994,1.994,0,0,0,2.057-2.176Z" transform="translate(-2158.083 -410.492)" fill="#fff"/></g><path d="M1655.094,293.179a5.951,5.951,0,0,0-5.864-6.034h-8.885v16.947h3.905v-4.88h4.356l2.212,4.88h4.276l-2.657-5.863a6.072,6.072,0,0,0,2.657-5.051m-10.844-2.016h4.979a2.018,2.018,0,0,1,.045,4.033h-5.025Z" transform="translate(-1588.208 -272.323)" fill="#fff" opacity="0"/><path d="M1344.529,187.694l-8.232-25.411-8.231,25.41-6.174-19.058h-4.116l10.29,31.763,8.232-25.41,8.232,25.409,10.29-31.762H1350.7Z" transform="translate(-1302.853 -162.283)" fill="#fff" opacity="0"/><path d="M1201.722,289.648h-4.535v4.018h3.189v1.744a4.749,4.749,0,0,1-3.189,1.234,4.988,4.988,0,0,1,0-9.972,4.749,4.749,0,0,1,3.188,1.232l1.688-3.724a8.538,8.538,0,0,0-4.875-1.526,9.008,9.008,0,0,0,0,18.008,8.666,8.666,0,0,0,7.094-3.732v-7.282Z" transform="translate(-1188.436 -268.365)" fill="#fff" opacity="0"/><rect width="0.626" height="46.745" transform="translate(75.674 0.24)" fill="#fff" stroke="#fff" stroke-width="0.5" opacity="0"/><g clip-path="url(#a)"><path d="M2.643,117.189l1.315-3.712h.019l1.315,3.712Zm-2.1,3.027H2.731v-.423H1.741l.756-2.179H5.439l.756,2.179H5.2v.423H7.391v-.423H6.783l-2.462-6.8H3.615l-2.462,6.8H.544Zm8.975-6.8h1.2c1.678,0,2.727,1.331,2.727,3.188s-1.05,3.188-2.727,3.188h-1.2Zm-1.511,6.8h2.767c2.119,0,3.256-1.473,3.256-3.611s-1.138-3.612-3.256-3.612H8.008v.424h.981v6.376H8.008Zm6.108-6.8h.618l2.354,6.8h.648l2.354-6.8h.618v-.424H18.451v.424H19.5l-2.08,6.194H17.4l-2.08-6.194h1.05v-.424H14.115Zm7.132,6.8h5.19v-2.239h-.471v1.816H22.758v-3.067h1.717v1.251h.471v-2.855h-.471v1.18H22.758v-2.885h3.159v1.7h.471v-2.129H21.247v.424h.981v6.376h-.981Zm7.02-.423h-.981v.423h2.492v-.423H28.8v-6.376h.039l3.541,6.8h.795v-6.8h.843v-.424H31.661v.424h.981v6.194h-.02l-3.443-6.618H27.286v.424h.981Zm8.856,0H35.965v.423h2.845v-.423H37.653v-6.315h1.952v1.756h.471v-2.24H34.7v2.24h.471v-1.756h1.952Zm3.618-6.376h.745v4.207c0,1.624.667,2.713,2.4,2.713,1.609,0,2.4-1.089,2.4-2.713v-4.207h.745v-.424H44.7v.424h1.06v4.217c0,1.583-.785,2.28-1.874,2.28s-1.874-.7-1.874-2.28v-4.217h1.06v-.424H40.741Zm6.91,6.8h2.491v-.423h-.981v-2.916h1.188c.961,0,1.206.364,1.638,2.129l.294,1.21h1.167v-.423h-.706l-.431-1.584c-.246-.888-.451-1.372-1.041-1.493v-.02a1.632,1.632,0,0,0,1.334-1.7,1.748,1.748,0,0,0-1.991-2H47.651v.424h.981v6.376h-.981Zm1.51-6.8h1.207c1.207,0,1.648.595,1.648,1.594a1.388,1.388,0,0,1-1.56,1.442h-1.3Zm4.929,6.8h5.19v-2.239h-.471v1.816H55.6v-3.067h1.717v1.251h.471v-2.855h-.471v1.18H55.6v-2.885h3.159v1.7h.471v-2.129H54.09v.424h.981v6.376H54.09Zm9.979-6.345h-.019a1.74,1.74,0,0,0-1.668-1,1.813,1.813,0,0,0-1.913,1.968c0,2.35,3.63,1.452,3.63,3.439a1.455,1.455,0,0,1-1.521,1.635c-1.118,0-1.579-.949-1.638-2.179h-.471v2.481h.471v-1.009h.02a1.685,1.685,0,0,0,1.8,1.13,1.889,1.889,0,0,0,1.922-2.048c0-2.573-3.63-1.5-3.63-3.541A1.351,1.351,0,0,1,62.44,113.3c1.05,0,1.589.777,1.628,2.138h.471v-2.441h-.471Zm7.514,0h-.02a1.739,1.739,0,0,0-1.668-1,1.813,1.813,0,0,0-1.912,1.968c0,2.35,3.63,1.452,3.63,3.439a1.454,1.454,0,0,1-1.52,1.635c-1.118,0-1.58-.949-1.638-2.179h-.471v2.481h.471v-1.009h.019a1.685,1.685,0,0,0,1.8,1.13,1.889,1.889,0,0,0,1.923-2.048c0-2.573-3.63-1.5-3.63-3.541a1.351,1.351,0,0,1,1.383-1.452c1.05,0,1.589.777,1.628,2.138h.471v-2.441h-.471Zm3.763,5.922H74.188v.423h2.844v-.423H75.875v-6.315h1.952v1.756H78.3v-2.24H72.923v2.24h.47v-1.756h1.952Zm4.955-2.6,1.314-3.712h.02l1.314,3.712Zm-2.1,3.027h2.188v-.423H79.4l.756-2.179H83.1l.755,2.179h-.99v.423h2.187v-.423h-.608l-2.463-6.8h-.706l-2.463,6.8H78.2Zm7.464,0h2.491v-.423h-.98v-2.916h1.187c.961,0,1.207.364,1.638,2.129l.294,1.21h1.167v-.423h-.706l-.432-1.584c-.245-.888-.451-1.372-1.04-1.493v-.02a1.632,1.632,0,0,0,1.335-1.7,1.749,1.749,0,0,0-1.992-2H85.665v.424h.981v6.376h-.981Zm1.511-6.8h1.206c1.207,0,1.649.595,1.649,1.594a1.389,1.389,0,0,1-1.56,1.442H87.176Zm6.973,6.376H92.991v.423h2.844v-.423H94.678v-6.315H96.63v1.756H97.1v-2.24H91.726v2.24H92.2v-1.756h1.952Zm10.065.423H106.7v-.423h-.98v-6.376h.98v-.424h-2.491v.424h.981V116.3h-3.65v-2.885h.981v-.424h-2.492v.424h.981v6.376h-.981v.423h2.492v-.423h-.981v-3.006h3.65v3.006h-.981Zm3.147,0h5.19v-2.239h-.471v1.816h-3.208v-3.067h1.717v1.251h.471v-2.855h-.471v1.18h-1.717v-2.885h3.159v1.7h.471v-2.129h-5.141v.424h.981v6.376h-.981Zm6.039,0h2.492v-.423h-.981v-2.916H116.1c.962,0,1.207.364,1.639,2.129l.293,1.21H119.2v-.423h-.706l-.431-1.584c-.246-.888-.451-1.372-1.04-1.493v-.02a1.632,1.632,0,0,0,1.334-1.7,1.748,1.748,0,0,0-1.991-2H113.4v.424h.981v6.376H113.4Zm1.511-6.8h1.207c1.207,0,1.648.595,1.648,1.594a1.388,1.388,0,0,1-1.56,1.442h-1.295Zm4.928,6.8h5.19v-2.239h-.471v1.816H121.35v-3.067h1.717v1.251h.471v-2.855h-.471v1.18H121.35v-2.885h3.159v1.7h.47v-2.129h-5.14v.424h.981v6.376h-.981Z" transform="translate(-0.286 -57.845)" fill="#fff"/><path d="M185.532,12.848h.553V15.82h-.553a2.348,2.348,0,0,0-2.4-2.546c-1.646,0-2.925,1.268-2.925,3.8,0,2.557,1.279,3.824,2.844,3.824a2.386,2.386,0,0,0,2.453-2.629v-.592H184.15v-.5h2.937v.5h-.956v3.647h-.622V19.965h-.035a2.522,2.522,0,0,1-2.36,1.5c-2.43,0-3.593-2.026-3.593-4.381s1.163-4.381,3.673-4.381a2.314,2.314,0,0,1,2.314,1.421h.023Z" transform="translate(-94.415 -6.512)" fill="#fff"/><path d="M196.326,23.294h.921V18.178h-.921v-.5h1.543v1.09h.024a1.606,1.606,0,0,1,1.554-1.255,1.1,1.1,0,0,1,.322.036v.568a.9.9,0,0,0-.276-.036c-1.094,0-1.624.937-1.624,2.226v2.985H199v.5h-2.671Z" transform="translate(-103.252 -8.976)" fill="#fff"/><path d="M209.178,20.357c-.034-1.457-.679-2.344-1.865-2.344-1.048,0-1.728.959-1.843,2.344Zm-3.708.5c.023,1.586.714,2.605,1.923,2.605a1.6,1.6,0,0,0,1.738-1.492h.552a2.158,2.158,0,0,1-2.291,1.989c-1.739,0-2.545-1.349-2.545-3.221s.806-3.221,2.545-3.221,2.406,1.622,2.406,3.339Z" transform="translate(-107.735 -8.976)" fill="#fff"/><path d="M220.711,20.677c-.392-.012-.749-.036-1.094-.036-1.428,0-2,.509-2,1.527a1.232,1.232,0,0,0,1.325,1.29c1.255,0,1.774-1.219,1.774-2.427ZM217.2,19.445a1.889,1.889,0,0,1,2.061-1.93,1.811,1.811,0,0,1,2.073,2.049v3.73h.795v.5H220.78V22.548h-.024a1.847,1.847,0,0,1-1.958,1.408,1.689,1.689,0,0,1-1.807-1.823c0-1.268.737-1.989,2.464-1.989h1.255v-.45c0-1.2-.565-1.681-1.428-1.681a1.385,1.385,0,0,0-1.463,1.432Z" transform="translate(-114.12 -8.976)" fill="#fff"/><path d="M229.464,14.934l.622-.237v1.54h1.6v.5h-1.6v4.275c0,.745.288,1.006.588,1.006.472,0,.714-.414.714-1.172v-.13h.484v.225c0,.936-.46,1.575-1.255,1.575s-1.152-.473-1.152-1.362V16.734H228.4v-.5h1.06Z" transform="translate(-120.123 -7.532)" fill="#fff"/><rect width="0.626" height="46.72" transform="translate(75.674 0.241)" fill="#fff"/><path d="M180.738,45.759,179,37.778h-.668v-.5h2.579v.5h-1.289l1.543,7.271h.023l1.888-7.768H184l1.888,7.768h.023l1.544-7.271H186.23v-.5h2.51v.5h-.667l-1.738,7.981h-.864l-1.923-7.839h-.023L181.6,45.759Z" transform="translate(-93.788 -19.106)" fill="#fff"/><path d="M204.665,44.641c-.035-1.457-.679-2.344-1.865-2.344-1.048,0-1.727.959-1.842,2.344Zm-3.707.5c.023,1.586.713,2.6,1.922,2.6a1.6,1.6,0,0,0,1.739-1.492h.553a2.159,2.159,0,0,1-2.292,1.989c-1.738,0-2.545-1.35-2.545-3.221s.806-3.221,2.545-3.221,2.407,1.622,2.407,3.339Z" transform="translate(-105.361 -21.421)" fill="#fff"/><path d="M212.575,45.931h.484c.046,1.22.7,1.812,1.589,1.812a1.285,1.285,0,0,0,1.451-1.326c0-.735-.322-.983-1.278-1.137l-.748-.118c-.922-.167-1.44-.6-1.44-1.456a1.833,1.833,0,0,1,1.912-1.907,1.566,1.566,0,0,1,1.577.888h.023v-.723h.484v2.1h-.484v-.332a1.378,1.378,0,0,0-1.508-1.432,1.275,1.275,0,0,0-1.382,1.326c0,.639.46.888,1.047.983l.864.142c1.094.177,1.554.686,1.554,1.61,0,1.255-.794,1.883-2.049,1.883a1.542,1.542,0,0,1-1.6-.983h-.011v.817h-.484Z" transform="translate(-111.798 -21.421)" fill="#fff"/><path d="M223.59,39.218l.622-.237V40.52h1.6v.5h-1.6v4.275c0,.745.289,1.006.588,1.006.472,0,.714-.415.714-1.172V45H226v.225c0,.936-.461,1.575-1.255,1.575s-1.152-.473-1.152-1.362V41.018h-1.059v-.5h1.059Z" transform="translate(-117.034 -19.977)" fill="#fff"/><path d="M235.675,44.641C235.64,43.184,235,42.3,233.81,42.3c-1.048,0-1.728.959-1.843,2.344Zm-3.708.5c.023,1.586.714,2.6,1.923,2.6a1.6,1.6,0,0,0,1.739-1.492h.552a2.158,2.158,0,0,1-2.291,1.989c-1.738,0-2.545-1.35-2.545-3.221s.806-3.221,2.545-3.221,2.407,1.622,2.407,3.339Z" transform="translate(-121.67 -21.421)" fill="#fff"/><path d="M243.05,47.577h.921V42.462h-.921v-.5h1.543v1.09h.024A1.607,1.607,0,0,1,246.17,41.8a1.117,1.117,0,0,1,.322.035V42.4a.933.933,0,0,0-.276-.036c-1.094,0-1.624.936-1.624,2.226v2.984h1.129v.5H243.05Z" transform="translate(-127.826 -21.421)" fill="#fff"/><path d="M251.137,47.577h.921V42.462h-.921v-.5h1.543v.959h.024a1.74,1.74,0,0,1,1.738-1.125c1.254,0,1.784.722,1.784,2.262v3.516h.853v.5h-2.464v-.5h.99V44.061c0-1.208-.449-1.765-1.358-1.765s-1.566.877-1.566,2.3v2.984h.922v.5h-2.464Z" transform="translate(-132.079 -21.421)" fill="#fff"/><path d="M180.591,65.627h1.52a1.63,1.63,0,0,0,1.83-1.694c0-1.172-.517-1.871-1.934-1.871h-1.417Zm-1.773,3.919h1.151V62.062h-1.151v-.5H182.3a2.052,2.052,0,0,1,2.337,2.344,1.916,1.916,0,0,1-1.566,2v.024c.691.142.933.71,1.221,1.752l.506,1.859h.829v.5h-1.37l-.346-1.421c-.506-2.072-.794-2.5-1.922-2.5h-1.394v3.422h1.152v.5h-2.925Z" transform="translate(-94.044 -31.551)" fill="#fff"/><path d="M198.248,69.243c-.392-.011-.748-.035-1.094-.035-1.427,0-2,.509-2,1.527a1.232,1.232,0,0,0,1.324,1.291c1.255,0,1.774-1.22,1.774-2.427Zm-3.512-1.231a1.89,1.89,0,0,1,2.061-1.93,1.81,1.81,0,0,1,2.072,2.049v3.73h.795v.5h-1.347V71.115h-.023a1.848,1.848,0,0,1-1.957,1.408,1.689,1.689,0,0,1-1.808-1.823c0-1.268.737-1.99,2.464-1.99h1.255v-.45c0-1.2-.564-1.681-1.427-1.681a1.385,1.385,0,0,0-1.463,1.432Z" transform="translate(-102.307 -33.866)" fill="#fff"/><path d="M207.009,62.05h.76V62.9h-.76Zm-.921,7.744h.99V64.679h-.99v-.5H207.7v5.613h.922v.5h-2.533Z" transform="translate(-108.386 -31.799)" fill="#fff"/><path d="M212.377,69.546h.99V62.062h-.99v-.5h1.612v7.981h.921v.5h-2.533Z" transform="translate(-111.694 -31.551)" fill="#fff"/><path d="M218.783,66.919h-.53v-.5h2.073v.5h-.921l1.393,4.9h.023l1.417-5.4h.829l1.416,5.4h.023l1.393-4.9h-.83v-.5h1.981v.5h-.53l-1.6,5.613h-.829l-1.427-5.47h-.023l-1.428,5.47h-.829Z" transform="translate(-114.784 -34.04)" fill="#fff"/><path d="M241.837,69.243c-.392-.011-.749-.035-1.094-.035-1.428,0-2,.509-2,1.527a1.233,1.233,0,0,0,1.325,1.291c1.255,0,1.774-1.22,1.774-2.427Zm-3.512-1.231a1.89,1.89,0,0,1,2.061-1.93,1.811,1.811,0,0,1,2.073,2.049v3.73h.795v.5h-1.347V71.115h-.024a1.847,1.847,0,0,1-1.957,1.408,1.689,1.689,0,0,1-1.808-1.823c0-1.268.737-1.99,2.464-1.99h1.255v-.45c0-1.2-.565-1.681-1.428-1.681a1.385,1.385,0,0,0-1.463,1.432Z" transform="translate(-125.231 -33.866)" fill="#fff"/><path d="M249.627,66.422h2.027v.5h-.864l1.635,4.689h.023l1.636-4.689h-.864v-.5h1.889v.5h-.4L252.4,73.4c-.368,1.042-.795,1.267-1.359,1.267a1.837,1.837,0,0,1-.564-.071v-.5a1.336,1.336,0,0,0,.472.071c.461,0,.657-.177,1.175-1.634l-1.957-5.613h-.541Z" transform="translate(-131.284 -34.04)" fill="#fff"/><path d="M58.23,25.4,50,0,41.766,25.4,35.592,6.349H31.476l10.29,31.745L50,12.7l8.232,25.4L68.52,6.349H64.4Z" transform="translate(-16.554 0)" fill="#fff"/><path d="M13.286,36.285H8.75V40.3h3.19v1.743a4.751,4.751,0,0,1-3.19,1.233,4.985,4.985,0,0,1,0-9.967,4.752,4.752,0,0,1,3.188,1.231l1.688-3.722A8.541,8.541,0,0,0,8.75,29.294a9,9,0,0,0,0,18,8.667,8.667,0,0,0,7.094-3.73V36.285Z" transform="translate(0 -15.013)" fill="#fff"/><path d="M113.882,34.4h4.979a2.017,2.017,0,0,1,.046,4.031h-5.025Zm10.845,2.015a5.949,5.949,0,0,0-5.864-6.031h-8.885V47.325h3.9V42.448h4.356l2.212,4.877h4.276l-2.657-5.86a6.067,6.067,0,0,0,2.657-5.048" transform="translate(-57.839 -15.573)" fill="#fff"/></g></g><text transform="translate(81 348)" fill="#fff" font-size="9" font-family="GlyphaLT-Light, Glypha LT" font-weight="300" opacity="0"><tspan x="-23.962" y="0">Terms apply</tspan></text><rect width="160" height="600" fill="none"/></g></svg>