<?xml version="1.0" encoding="utf-8"?>
<!-- Generator: Adobe Illustrator 26.4.1, SVG Export Plug-In . SVG Version: 6.00 Build 0)  -->
<svg version="1.1" id="Layer_1" xmlns="http://www.w3.org/2000/svg" xmlns:xlink="http://www.w3.org/1999/xlink" x="0px" y="0px"
	 viewBox="0 0 1600 671" style="enable-background:new 0 0 1600 671;" xml:space="preserve">
<style type="text/css">
	.st0{fill:#0E4D8C;}
	.st1{fill:url(#SVGID_1_);}
	.st2{fill:url(#SVGID_00000178189171032736131660000000721308399252261033_);}
	.st3{fill:url(#SVGID_00000171718069774909462720000008346293812847153572_);}
	.st4{fill:url(#SVGID_00000069360319761730906030000001828659459812564138_);}
	.st5{fill:url(#SVGID_00000151541040480091927130000017826824148522986399_);}
	.st6{fill:url(#SVGID_00000047033654368415534180000002791853174294967704_);}
	.st7{fill:url(#SVGID_00000049933994857304463240000005394668565672346786_);}
	.st8{fill:url(#SVGID_00000147193708775466962380000016120172830076674966_);}
	.st9{fill:url(#SVGID_00000019673900797775403030000011313984023216186790_);}
	.st10{fill:url(#SVGID_00000078737841883702674030000009212891880868698044_);}
	.st11{fill:url(#SVGID_00000090275164909826178810000006325724078954621607_);}
	.st12{fill:url(#SVGID_00000037685505198672030790000001693364774365781141_);}
</style>
<g>
	<path class="st0" d="M731.667,561.782v-51.551h16.176c22.77,0,47.721,0.819,47.721,24.173c0,24.7-24.071,27.378-52.51,27.378
		H731.667L731.667,561.782z M731.667,589.99h20.997l63.078,75.939h66.073l-77.065-82.385c16.208-5.105,49.91-15.037,49.91-49.68
		c0-50.486-68.283-51.835-101.996-51.835h-70.893c-7.458,0-9.215,0.802-9.215,5.657v178.346c0,0,1.757-0.049,9.215-0.049h40.705
		l9.19,0.049V589.99z"/>
	<path class="st0" d="M1188.034,642.348c-32.829,0-46.837-26.325-46.837-68.217c0-41.875,14.008-68.455,46.837-68.455
		c32.825,0,46.837,26.304,46.837,68.455C1234.871,616.023,1220.859,642.348,1188.034,642.348L1188.034,642.348z M1297.04,574.132
		c0-64.971-41.591-96.656-109.006-96.656c-67.419,0-109.006,31.414-109.006,96.656c0,64.991,41.139,96.405,109.006,96.405
		C1255.881,670.537,1297.04,639.123,1297.04,574.132z"/>
	<path class="st0" d="M539.11,584.351h82.811v-28.999H539.11v-44.303h92.388l12.574-29.02H489.21c-0.273,0-0.477,0-0.757,0
		c-6.062,0.062-8.082,0.802-8.432,4.233v179.675l161.95,0.045l0.015-5.644v-17.723l0.033-5.644H539.11V584.351z"/>
	<path class="st0" d="M1519.585,482.03h-31.965l-9.203-0.045c0,0,1.115,111.088,1.115,119.665l-98.721-116.127
		c-2.625-2.941-3.501-3.493-10.075-3.493h-35.898l-1.025,0.016c-5.706,0.054-7.73,0.778-8.15,3.966v180.02
		c0,0,1.749-0.049,9.174-0.049h31.969c7.434,0,9.195,0.049,9.195,0.049V563.674c0-12.358-0.37-20.529-0.37-24.029
		c0,0,100.926,118.064,104.999,122.561c4.039,4.521,10.066,3.777,10.066,3.777h28.888l9.187,0.111V481.984L1519.585,482.03z"/>
	<path class="st0" d="M59.1,584.351h82.784v-28.999H59.1v-44.303h92.374l12.572-29.02H9.176c-0.253,0-0.444,0-0.683,0
		c-6.593,0.062-8.378,0.934-8.494,5.196v178.712l161.95,0.045v-5.644v-17.723l0.058-5.644H59.1V584.351z"/>
	<path class="st0" d="M318.457,595.043l-70.313-109.471c-2.612-2.945-3.499-3.472-10.056-3.472H202.19l-9.197,0.041v183.949
		c0,0,1.751-0.061,9.197-0.061h31.955c7.442,0,9.174,0.061,9.174,0.061V563.728c0-12.358-0.339-17.2-0.339-20.693
		c0,0,69.358,111.058,76.22,118.867l0.374-0.008c6.921-7.857,72.682-118.859,72.682-118.859c0,3.493-0.374,8.335-0.374,20.693
		v102.362c0,0,1.757-0.061,9.189-0.061h31.954c7.455,0,9.201,0.061,9.201,0.061V482.141l-9.201-0.041h-35.887
		c-6.576,0-7.43,0.527-10.061,3.472l-66.748,109.471H318.457z"/>
	<path class="st0" d="M1030.192,566.846c-36.437-17.443-86.071-19.018-86.071-39.415c0-16.114,16.139-20.956,35.182-20.956
		c29.809,0,55.48,11.815,57.973,11.815c1.646,0,3.308-1.07,4.542-2.69l2.81-3.641l14.823-18.866l0,0
		c0-0.016,0.008-0.016,0.008-0.016c0.008,0-0.057-0.033-0.415-0.173c-0.921-0.449-3.497-1.617-7.092-3.032
		c-2.925-1.135-4.731-1.756-5.653-2.044c-14.773-4.92-41.994-10.35-68.644-10.35c-48.034,0-91.073,16.114-91.073,54.781
		c0,22.285,10.178,36.371,32.129,44.977c42.225,16.645,84.615,15.711,84.615,39.596c0,16.657-10.342,24.704-33.541,24.704
		c-35.601,0-66.25-11.811-68.706-11.811c-1.666,0-3.744,1.086-4.571,2.682l-4.529,8.434l-7.944,14.719l6.487,2.448
		c13.197,5.22,47.688,12.531,80.916,12.531c52.181,0,90.403-17.089,89.432-56.661
		C1060.384,593.492,1051.309,577.053,1030.192,566.846z"/>
	
		<linearGradient id="SVGID_1_" gradientUnits="userSpaceOnUse" x1="1462.9398" y1="215.3496" x2="1462.9604" y2="215.3496" gradientTransform="matrix(0.438 0.2558 -0.1751 0.2999 256.3967 -153.251)">
		<stop  offset="0" style="stop-color:#808080"/>
		<stop  offset="0.0934" style="stop-color:#8C8C8C"/>
		<stop  offset="0.2653" style="stop-color:#AEAEAE"/>
		<stop  offset="0.4954" style="stop-color:#E4E4E4"/>
		<stop  offset="0.5" style="stop-color:#E6E6E6"/>
		<stop  offset="0.5833" style="stop-color:#DDDDDD"/>
		<stop  offset="0.7191" style="stop-color:#C4C4C4"/>
		<stop  offset="0.8895" style="stop-color:#9D9D9D"/>
		<stop  offset="1" style="stop-color:#808080"/>
	</linearGradient>
	<path class="st1" d="M859.523,285.439l-0.128,0.23C859.437,285.595,859.499,285.521,859.523,285.439z"/>
	
		<linearGradient id="SVGID_00000047772497386021258530000005172883137868215734_" gradientUnits="userSpaceOnUse" x1="1019.1437" y1="19.4226" x2="1462.8995" y2="19.4226" gradientTransform="matrix(0.438 0.2558 -0.1751 0.2999 256.4036 -153.251)">
		<stop  offset="0" style="stop-color:#808080"/>
		<stop  offset="0.0934" style="stop-color:#8C8C8C"/>
		<stop  offset="0.2653" style="stop-color:#AEAEAE"/>
		<stop  offset="0.4954" style="stop-color:#E4E4E4"/>
		<stop  offset="0.5" style="stop-color:#E6E6E6"/>
		<stop  offset="0.5833" style="stop-color:#DDDDDD"/>
		<stop  offset="0.7191" style="stop-color:#C4C4C4"/>
		<stop  offset="0.8895" style="stop-color:#9D9D9D"/>
		<stop  offset="1" style="stop-color:#808080"/>
	</linearGradient>
	<path style="fill:url(#SVGID_00000047772497386021258530000005172883137868215734_);" d="M877.032,235.541l-1.255-1.568
		l-65.954-80.772l-0.387-0.494l-63.889-78.221c-12.271-14.683-11.206-17.607-10.605-19.097l-23.112,38.91
		c-0.206,0.42-0.51,1.321-0.228,2.575c0.646,2.188,2.758,5.331,5.61,8.857l1.247,1.551l65.942,80.781l0.399,0.481l63.885,78.234
		c11.753,14.07,11.827,16.908,10.84,18.661l23.305-39.127C883.803,244.444,881.047,240.527,877.032,235.541z"/>
	
		<linearGradient id="SVGID_00000139256789641927298130000017392979514344784809_" gradientUnits="userSpaceOnUse" x1="725.95" y1="54.2282" x2="934.1999" y2="175.8499">
		<stop  offset="0" style="stop-color:#808080"/>
		<stop  offset="0.0934" style="stop-color:#8C8C8C"/>
		<stop  offset="0.2653" style="stop-color:#AEAEAE"/>
		<stop  offset="0.4954" style="stop-color:#E4E4E4"/>
		<stop  offset="0.5" style="stop-color:#E6E6E6"/>
		<stop  offset="0.5833" style="stop-color:#DDDDDD"/>
		<stop  offset="0.7191" style="stop-color:#C4C4C4"/>
		<stop  offset="0.8895" style="stop-color:#9D9D9D"/>
		<stop  offset="1" style="stop-color:#808080"/>
	</linearGradient>
	<path style="fill:url(#SVGID_00000139256789641927298130000017392979514344784809_);" d="M909.848,180.16l-1.259-1.568
		l-65.95-80.776l-0.375-0.493l-63.897-78.222C766.101,4.414,767.166,1.493,767.771,0l-23.12,38.913
		c-0.214,0.436-0.514,1.358-0.21,2.629c0.662,2.189,2.773,5.303,5.591,8.804l1.247,1.555l65.95,80.773l0.395,0.481l63.889,78.238
		c11.737,14.069,11.828,16.912,10.832,18.665l23.297-39.135C916.624,189.058,913.863,185.138,909.848,180.16z"/>
	
		<linearGradient id="SVGID_00000036242076180976123040000012372256548769745082_" gradientUnits="userSpaceOnUse" x1="1463.5737" y1="73.9746" x2="1463.5961" y2="73.9746" gradientTransform="matrix(0.438 0.2558 -0.1751 0.2999 264.1868 -166.3994)">
		<stop  offset="0" style="stop-color:#808080"/>
		<stop  offset="0.0934" style="stop-color:#8C8C8C"/>
		<stop  offset="0.2653" style="stop-color:#AEAEAE"/>
		<stop  offset="0.4954" style="stop-color:#E4E4E4"/>
		<stop  offset="0.5" style="stop-color:#E6E6E6"/>
		<stop  offset="0.5833" style="stop-color:#DDDDDD"/>
		<stop  offset="0.7191" style="stop-color:#C4C4C4"/>
		<stop  offset="0.8895" style="stop-color:#9D9D9D"/>
		<stop  offset="1" style="stop-color:#808080"/>
	</linearGradient>
	<path style="fill:url(#SVGID_00000036242076180976123040000012372256548769745082_);" d="M892.344,230.057l-0.119,0.227
		C892.261,230.214,892.303,230.131,892.344,230.057z"/>
	
		<linearGradient id="SVGID_00000125601211611600430270000007084058022498626453_" gradientUnits="userSpaceOnUse" x1="1017.8888" y1="302.2129" x2="1461.6487" y2="302.2129" gradientTransform="matrix(0.438 0.2558 -0.1751 0.2999 240.8215 -126.957)">
		<stop  offset="0" style="stop-color:#808080"/>
		<stop  offset="0.0934" style="stop-color:#8C8C8C"/>
		<stop  offset="0.2653" style="stop-color:#AEAEAE"/>
		<stop  offset="0.4954" style="stop-color:#E4E4E4"/>
		<stop  offset="0.5" style="stop-color:#E6E6E6"/>
		<stop  offset="0.5833" style="stop-color:#DDDDDD"/>
		<stop  offset="0.7191" style="stop-color:#C4C4C4"/>
		<stop  offset="0.8895" style="stop-color:#9D9D9D"/>
		<stop  offset="1" style="stop-color:#808080"/>
	</linearGradient>
	<path style="fill:url(#SVGID_00000125601211611600430270000007084058022498626453_);" d="M816.887,357.58
		c0.222-0.428,0.58-1.419,0.189-2.838c-0.773-2.094-2.937-5.011-5.681-8.421l-1.255-1.572l-65.958-80.772l-0.387-0.498
		l-63.891-78.217c-12.272-14.687-11.204-17.519-10.511-19.009l-23.349,39.212c-1.059,1.847,1.506,6.064,5.525,11.034l1.244,1.563
		l65.942,80.772l0.399,0.485l63.887,78.23c11.754,14.086,11.861,16.908,10.869,18.669L816.887,357.58z"/>
	
		<linearGradient id="SVGID_00000093144205836513469050000003773309829170192535_" gradientUnits="userSpaceOnUse" x1="1461.7314" y1="498.0778" x2="1461.7419" y2="498.0778" gradientTransform="matrix(0.438 0.2558 -0.1751 0.2999 240.8215 -126.957)">
		<stop  offset="0" style="stop-color:#808080"/>
		<stop  offset="0.0934" style="stop-color:#8C8C8C"/>
		<stop  offset="0.2653" style="stop-color:#AEAEAE"/>
		<stop  offset="0.4954" style="stop-color:#E4E4E4"/>
		<stop  offset="0.5" style="stop-color:#E6E6E6"/>
		<stop  offset="0.5833" style="stop-color:#DDDDDD"/>
		<stop  offset="0.7191" style="stop-color:#C4C4C4"/>
		<stop  offset="0.8895" style="stop-color:#9D9D9D"/>
		<stop  offset="1" style="stop-color:#808080"/>
	</linearGradient>
	<path style="fill:url(#SVGID_00000093144205836513469050000003773309829170192535_);" d="M793.91,396.218l-0.123,0.222
		C793.828,396.366,793.873,396.284,793.91,396.218z"/>
	
		<linearGradient id="SVGID_00000182518494615410503280000004410877924287206565_" gradientUnits="userSpaceOnUse" x1="1461.094" y1="639.4473" x2="1461.1072" y2="639.4473" gradientTransform="matrix(0.438 0.2558 -0.1751 0.2999 233.031 -113.8086)">
		<stop  offset="0" style="stop-color:#808080"/>
		<stop  offset="0.0934" style="stop-color:#8C8C8C"/>
		<stop  offset="0.2653" style="stop-color:#AEAEAE"/>
		<stop  offset="0.4954" style="stop-color:#E4E4E4"/>
		<stop  offset="0.5" style="stop-color:#E6E6E6"/>
		<stop  offset="0.5833" style="stop-color:#DDDDDD"/>
		<stop  offset="0.7191" style="stop-color:#C4C4C4"/>
		<stop  offset="0.8895" style="stop-color:#9D9D9D"/>
		<stop  offset="1" style="stop-color:#808080"/>
	</linearGradient>
	<path style="fill:url(#SVGID_00000182518494615410503280000004410877924287206565_);" d="M761.09,451.595l-0.131,0.23
		C761.008,451.747,761.057,451.673,761.09,451.595z"/>
	
		<linearGradient id="SVGID_00000070822882747257427600000004468070205403454102_" gradientUnits="userSpaceOnUse" x1="1017.2636" y1="443.5744" x2="1461.0221" y2="443.5744" gradientTransform="matrix(0.438 0.2558 -0.1751 0.2999 233.031 -113.8086)">
		<stop  offset="0" style="stop-color:#808080"/>
		<stop  offset="0.0934" style="stop-color:#8C8C8C"/>
		<stop  offset="0.2653" style="stop-color:#AEAEAE"/>
		<stop  offset="0.4954" style="stop-color:#E4E4E4"/>
		<stop  offset="0.5" style="stop-color:#E6E6E6"/>
		<stop  offset="0.5833" style="stop-color:#DDDDDD"/>
		<stop  offset="0.7191" style="stop-color:#C4C4C4"/>
		<stop  offset="0.8895" style="stop-color:#9D9D9D"/>
		<stop  offset="1" style="stop-color:#808080"/>
	</linearGradient>
	<path style="fill:url(#SVGID_00000070822882747257427600000004468070205403454102_);" d="M783.947,413.163L783.947,413.163
		c0,0,0.827-1.127,0.317-3.012c-0.769-2.102-2.933-5.027-5.698-8.45l-1.255-1.563l-65.952-80.776l-0.385-0.494l-63.893-78.222
		c-12.276-14.691-11.206-17.515-10.513-19.012l-23.342,39.22c-1.062,1.851,1.503,6.056,5.521,11.03l1.251,1.559l65.938,80.772
		l0.399,0.49l63.882,78.242c11.737,14.053,11.861,16.892,10.873,18.648L783.947,413.163z"/>
	
		<linearGradient id="SVGID_00000110466420724796387880000013962370921144074921_" gradientUnits="userSpaceOnUse" x1="1018.5244" y1="161.256" x2="1462.2841" y2="161.256" gradientTransform="matrix(0.438 0.2558 -0.1751 0.2999 248.615 -140.1045)">
		<stop  offset="0" style="stop-color:#808080"/>
		<stop  offset="0.0934" style="stop-color:#8C8C8C"/>
		<stop  offset="0.2653" style="stop-color:#AEAEAE"/>
		<stop  offset="0.4954" style="stop-color:#E4E4E4"/>
		<stop  offset="0.5" style="stop-color:#E6E6E6"/>
		<stop  offset="0.5833" style="stop-color:#DDDDDD"/>
		<stop  offset="0.7191" style="stop-color:#C4C4C4"/>
		<stop  offset="0.8895" style="stop-color:#9D9D9D"/>
		<stop  offset="1" style="stop-color:#808080"/>
	</linearGradient>
	<path style="fill:url(#SVGID_00000110466420724796387880000013962370921144074921_);" d="M751.973,243.934l63.889,78.226
		c12.271,14.703,11.794,17.147,10.679,18.891l23.466-39.354c0.971-1.868-1.781-5.792-5.792-10.77l-1.255-1.56l-65.958-80.776
		l-0.387-0.494l-63.893-78.221c-12.268-14.691-11.209-17.515-10.517-19.008l-23.338,39.216c-1.057,1.843,1.506,6.056,5.523,11.033
		l1.244,1.555l65.948,80.777L751.973,243.934z"/>
	
		<linearGradient id="SVGID_00000031887900475687181880000001618339256176461231_" gradientUnits="userSpaceOnUse" x1="627.0477" y1="220.3959" x2="835.9982" y2="342.4478">
		<stop  offset="0.2022" style="stop-color:#00488E"/>
		<stop  offset="0.4485" style="stop-color:#647AB1"/>
		<stop  offset="0.5056" style="stop-color:#778ABB"/>
		<stop  offset="0.8034" style="stop-color:#00488E"/>
	</linearGradient>
	<path style="fill:url(#SVGID_00000031887900475687181880000001618339256176461231_);" d="M829.377,298.216l-88.148-36.671
		l-0.543-0.206l-91.022-37.856l-1.409-0.564c-2.806-1.008-8.927-2.913-11.488-1.461c-0.29,0.165-0.566,0.461-0.689,0.741
		l-22.918,38.671c0.975-1.218,3.764-3.448,20.43,3.744l88.159,36.671l0.539,0.222l91.01,37.848l1.308,0.522
		c2.744,0.983,9.01,2.97,11.61,1.497c0.263-0.152,0.975-1.036,1.102-1.283l22.565-38.124
		C848.914,303.178,846.03,305.399,829.377,298.216z"/>
	
		<linearGradient id="SVGID_00000026864164331792651030000012794492018793270683_" gradientUnits="userSpaceOnUse" x1="659.8671" y1="165.005" x2="868.8205" y2="287.0586">
		<stop  offset="0.2022" style="stop-color:#00488E"/>
		<stop  offset="0.4485" style="stop-color:#647AB1"/>
		<stop  offset="0.5056" style="stop-color:#778ABB"/>
		<stop  offset="0.8034" style="stop-color:#00488E"/>
	</linearGradient>
	<path style="fill:url(#SVGID_00000026864164331792651030000012794492018793270683_);" d="M862.205,242.835l-88.153-36.671
		l-0.543-0.21l-91.018-37.852l-1.421-0.568c-2.8-1.003-8.917-2.913-11.488-1.46c-0.286,0.164-0.559,0.465-0.685,0.736
		l-22.921,38.671c0.979-1.218,3.76-3.44,20.425,3.748l88.163,36.667l0.543,0.222l91.012,37.852l1.312,0.514
		c2.74,0.995,9.005,2.974,11.601,1.506c0.276-0.148,0.967-1.029,1.111-1.288l22.56-38.123
		C881.726,247.788,878.85,250.01,862.205,242.835z"/>
	
		<linearGradient id="SVGID_00000144307311098377754150000006005719424122051465_" gradientUnits="userSpaceOnUse" x1="692.6813" y1="109.6146" x2="901.6359" y2="231.669">
		<stop  offset="0.2022" style="stop-color:#00488E"/>
		<stop  offset="0.4485" style="stop-color:#647AB1"/>
		<stop  offset="0.5056" style="stop-color:#778ABB"/>
		<stop  offset="0.8034" style="stop-color:#00488E"/>
	</linearGradient>
	<path style="fill:url(#SVGID_00000144307311098377754150000006005719424122051465_);" d="M895.018,187.446l-88.148-36.671
		l-0.543-0.206l-91.02-37.856l-1.411-0.559c-2.806-1.012-8.925-2.913-11.486-1.465c-0.296,0.165-0.57,0.469-0.689,0.732
		l-22.925,38.671c0.977-1.209,3.771-3.439,20.438,3.748l88.161,36.675l0.539,0.222l91.012,37.844l1.308,0.518
		c2.74,0.995,8.997,2.978,11.601,1.506c0.268-0.152,0.979-1.024,1.115-1.279l22.548-38.136
		C914.555,192.407,911.675,194.629,895.018,187.446z"/>
	<path class="st0" d="M1562.51,644.911v21.252h-3.435v-21.252h-8.031v-2.016h19.537v2.016H1562.51z"/>
	<path class="st0" d="M1596.836,666.164v-21.326l-8.265,21.326h-3.127l-8.376-21.121v21.121h-2.74v-23.268h5.015l8.071,19.903
		l7.722-19.903H1600v23.268H1596.836z"/>
</g>
</svg>
